<?xml version="1.0" encoding="UTF-8" standalone="no"?>
<svg width="77px" height="57px" viewBox="0 0 77 57" version="1.1" xmlns="http://www.w3.org/2000/svg" xmlns:xlink="http://www.w3.org/1999/xlink">
    <!-- Generator: Sketch 44.1 (41455) - http://www.bohemiancoding.com/sketch -->
    <title>add-question</title>
    <desc>Created with Sketch.</desc>
    <defs></defs>
    <g id="//style-guide" stroke="none" stroke-width="1" fill="none" fill-rule="evenodd">
        <g id="add-question">
            <g id="add-question-1" transform="translate(4.000000, 3.000000)">
                <rect id="Rectangle" stroke="#999999" stroke-width="6.4125" x="0.576442772" y="0.541097561" width="68.1724561" height="49.4913241" rx="3.42"></rect>
                <g id="Group-2" transform="translate(16.642787, 15.282230)" fill-rule="nonzero" fill="#999999">
                    <path d="M18.1363108,8.89309471 C18.1363108,8.21081624 17.5901074,7.65726956 16.9168799,7.65726956 L11.6326796,7.65726956 L11.6326796,2.30202724 C11.6326796,1.61974877 11.0864762,1.06620209 10.4132487,1.06620209 L7.97438702,1.06620209 C7.30115958,1.06620209 6.75495617,1.61974877 6.75495617,2.30202724 L6.75495617,7.65726956 L1.47075582,7.65726956 C0.797528367,7.65726956 0.251324964,8.21081624 0.251324964,8.89309471 L0.251324964,11.364745 C0.251324964,12.0470235 0.797528367,12.6005701 1.47075582,12.6005701 L6.75495617,12.6005701 L6.75495617,17.9558124 C6.75495617,18.6380909 7.30115958,19.1916376 7.97438702,19.1916376 L10.4132487,19.1916376 C11.0864762,19.1916376 11.6326796,18.6380909 11.6326796,17.9558124 L11.6326796,12.6005701 L16.9168799,12.6005701 C17.5901074,12.6005701 18.1363108,12.0470235 18.1363108,11.364745 L18.1363108,8.89309471 Z" id="ï§"></path>
                    <path d="M23.7482071,6.28795678 L27.4532743,6.28795678 C27.4803186,4.67499667 28.1834701,3.89539929 29.5086401,3.89539929 C30.6985888,3.89539929 31.4017402,4.40616999 31.4017402,5.53524206 C31.4017402,8.11597823 28.075293,8.35792224 28.075293,12.4978531 L31.6721831,12.4978531 C31.6721831,9.35258098 35.8370032,8.81492761 35.8370032,4.75564468 C35.8370032,1.74478582 33.5923274,0.0511777003 29.968393,0.0511777003 C26.10106,0.0511777003 23.7752513,2.33620452 23.7482071,6.28795678 Z M29.8061272,14.540936 C28.4539129,14.540936 27.507363,15.4818294 27.507363,16.8528455 C27.507363,18.2238616 28.4539129,19.1916376 29.8061272,19.1916376 C31.1583417,19.1916376 32.131936,18.2238616 32.131936,16.8528455 C32.131936,15.4818294 31.1583417,14.540936 29.8061272,14.540936 Z" id="?"></path>
                </g>
            </g>
        </g>
    </g>
</svg>