<?xml version="1.0" encoding="UTF-8"?>
<svg width="39px" height="50px" viewBox="0 0 39 50" version="1.1" xmlns="http://www.w3.org/2000/svg" xmlns:xlink="http://www.w3.org/1999/xlink">
    <!-- Generator: Sketch 44.1 (41455) - http://www.bohemiancoding.com/sketch -->
    <title>Group</title>
    <desc>Created with Sketch.</desc>
    <defs></defs>
    <g id="Symbols" stroke="none" stroke-width="1" fill="none" fill-rule="evenodd">
        <g id="Group" fill="#B2B2B2">
            <g id="Group-10" transform="translate(0.000000, 0.000000)">
                <path d="M23.6933353,19.8824837 L2.05635803,19.8824837 L12.5683228,9.61729373 C13.4495789,8.75586346 13.4495789,7.35913188 12.5683228,6.49770161 C11.6870668,5.63852051 10.2581247,5.63852051 9.37686867,6.49770161 L-4.98692883,20.5279941 C-5.86818489,21.3894243 -5.86818489,22.7861559 -4.98692883,23.645337 L9.37686867,37.6756295 C10.2581247,38.5370598 11.6870668,38.5370598 12.5683228,37.6756295 C13.4495789,36.8141992 13.4495789,35.4197168 12.5683228,34.5582865 L2.05861189,24.2908474 L23.6933353,24.2908474 C32.4179956,24.2908474 39.4928364,31.2002829 39.4928364,39.724619 L39.4928364,41.9288009 C39.4928364,43.1455992 40.502562,44.1329827 41.748942,44.1329827 C42.9953221,44.1329827 44.0073015,43.1455992 44.0073015,41.9288009 L44.0073015,39.724619 C44.0073015,28.764437 34.9130095,19.8824837 23.6933353,19.8824837" id="Fill-1" transform="translate(19.179715, 24.993149) scale(-1, 1) rotate(90.000000) translate(-19.179715, -24.993149) "></path>
            </g>
        </g>
    </g>
</svg>