<?xml version="1.0" encoding="UTF-8"?>
<svg width="69px" height="55px" viewBox="0 0 69 55" version="1.1" xmlns="http://www.w3.org/2000/svg" xmlns:xlink="http://www.w3.org/1999/xlink">
    <!-- Generator: Sketch 44.1 (41455) - http://www.bohemiancoding.com/sketch -->
    <title>Group</title>
    <desc>Created with Sketch.</desc>
    <defs></defs>
    <g id="##app" stroke="none" stroke-width="1" fill="none" fill-rule="evenodd">
        <g id="question/add-question" transform="translate(-286.000000, -644.000000)">
            <rect id="Rectangle-2" fill="#F9F9F9" x="0" y="206" width="640" height="931"></rect>
            <g id="Group-9" transform="translate(48.000000, 241.000000)">
                <g id="Group-18" transform="translate(0.000000, 153.000000)">
                    <g id="Group-12" transform="translate(0.000000, 220.000000)">
                        <g id="Group-5">
                            <g id="add-image">
                                <rect id="Rectangle-9" stroke="#EAEAEA" stroke-width="2.4" fill="#F5F5F5" x="0" y="0" width="545" height="146" rx="2"></rect>
                                <g id="Group-8" transform="translate(190.000000, 30.000000)">
                                    <g id="Group" transform="translate(48.000000, 0.000000)">
                                        <g id="Photo" fill="#BFBFBF">
                                            <path d="M0,5.27074753 C0,2.35979405 2.36854842,0 5.2861118,0 L52.8348184,0 C55.7542574,0 58.1209302,2.35818488 58.1209302,5.27074753 L58.1209302,42.2827408 C58.1209302,45.1936943 55.7523818,47.5534884 52.8348184,47.5534884 L5.2861118,47.5534884 C2.36667287,47.5534884 0,45.1953035 0,42.2827408 L0,5.27074753 Z M5.28372093,5.27074753 L5.28372093,42.2827408 C5.28372093,42.2729306 5.28054793,42.2697674 5.2861118,42.2697674 L52.8348184,42.2697674 C52.8386373,42.2697674 52.8372093,42.2711909 52.8372093,42.2827408 L52.8372093,5.27074753 C52.8372093,5.28055782 52.8403823,5.28372093 52.8348184,5.28372093 L5.2861118,5.28372093 C5.28229297,5.28372093 5.28372093,5.28229747 5.28372093,5.27074753 Z M18.2263237,17.596926 C19.0655667,15.9124996 20.5626953,15.8350326 21.5705911,17.4244303 L25.2268938,23.1902236 C26.2346387,24.7793833 28.3402393,25.266463 29.9459449,24.2681614 L31.2732539,23.4429449 C32.8717689,22.4491138 35.0520871,22.8843789 36.1430257,24.4149895 L41.2446299,31.5726505 C42.3356156,33.103327 41.700949,34.3441855 39.8089739,34.3441855 L13.2932857,34.344186 C11.4094091,34.3441861 10.5601962,32.9834455 11.4018092,31.2942622 L18.2263237,17.596926 Z M43.5906977,21.1348837 C41.4021088,21.1348837 39.627907,19.3606819 39.627907,17.172093 C39.627907,14.9835042 41.4021088,13.2093023 43.5906977,13.2093023 C45.7792865,13.2093023 47.5534884,14.9835042 47.5534884,17.172093 C47.5534884,19.3606819 45.7792865,21.1348837 43.5906977,21.1348837 Z" id="Combined-Shape"></path>
                                        </g>
                                        <g id="plus" transform="translate(36.986047, 22.455814)">
                                            <path d="M15.8511628,31.0173988 C24.2272436,31.0173988 31.0173988,24.2272436 31.0173988,15.8511628 C31.0173988,7.47508193 24.2272436,0.684926787 15.8511628,0.684926787 C7.47508193,0.684926787 0.684926787,7.47508193 0.684926787,15.8511628 C0.684926787,24.2272436 7.47508193,31.0173988 15.8511628,31.0173988 L15.8511628,31.0173988 Z" id="Oval-275" stroke="#BFBFBF" stroke-width="2" fill="#BFBFBF"></path>
                                            <path d="M15.8511628,27.9841516 C9.15029811,27.9841516 3.71817399,22.5520275 3.71817399,15.8511628 C3.71817399,9.15029811 9.15029811,3.71817399 15.8511628,3.71817399 C22.5520275,3.71817399 27.9841516,9.15029811 27.9841516,15.8511628 C27.9841516,22.5520275 22.5520275,27.9841516 15.8511628,27.9841516 L15.8511628,27.9841516 Z" id="Path" fill="#F9F9F9"></path>
                                            <rect id="Rectangle-1499" fill="#BFBFBF" x="8.26804479" y="14.3345392" width="15.166236" height="3.0332472" rx="1.5166236"></rect>
                                            <path d="M15.8511628,8.26804479 C16.6887709,8.26804479 17.3677864,8.94916984 17.3677864,9.77768823 L17.3677864,21.9246373 C17.3677864,22.7583904 16.6946105,23.4342808 15.8511628,23.4342808 L15.8511628,23.4342808 C15.0135547,23.4342808 14.3345392,22.7531557 14.3345392,21.9246373 L14.3345392,9.77768823 C14.3345392,8.94393518 15.0077151,8.26804479 15.8511628,8.26804479 L15.8511628,8.26804479 L15.8511628,8.26804479 Z" id="Rectangle-1499-Copy" fill="#BFBFBF"></path>
                                        </g>
                                    </g>
                                </g>
                            </g>
                        </g>
                    </g>
                </g>
            </g>
        </g>
    </g>
</svg>