<?xml version="1.0" encoding="UTF-8"?>
<svg width="25px" height="19px" viewBox="0 0 25 19" version="1.1" xmlns="http://www.w3.org/2000/svg" xmlns:xlink="http://www.w3.org/1999/xlink">
    <!-- Generator: Sketch 44.1 (41455) - http://www.bohemiancoding.com/sketch -->
    <title>Group 12</title>
    <desc>Created with Sketch.</desc>
    <defs></defs>
    <g id="//style-guide" stroke="none" stroke-width="1" fill="none" fill-rule="evenodd">
        <g id="pgeon_icons" transform="translate(-229.000000, -227.000000)" fill="#BFBFBF">
            <g id="Group-12" transform="translate(241.500000, 236.500000) rotate(-360.000000) translate(-241.500000, -236.500000) translate(229.000000, 227.000000)">
                <path d="M0.0394602094,9.49071687 C0.0343813822,10.1245815 0.274321846,10.75614 0.758853842,11.240672 C0.763821603,11.2456372 7.73928162,18.2210998 7.73928162,18.2210998 C8.70822142,19.1900396 10.270879,19.1983438 11.2446334,18.2245894 C12.2116459,17.2575769 12.2077245,15.6858184 11.2411438,14.7192376 L6.00768569,9.48577955 L11.253011,4.24045421 C12.224148,3.26931728 12.2359916,1.70663685 11.2644403,0.735085547 C10.2996156,-0.229739174 8.72784415,-0.22225769 7.75907164,0.746514825 L0.770283121,7.73530334 C0.280551347,8.22503512 0.0397751352,8.85770953 0.0394602094,9.49071687 Z" id="Path-Copy-4"></path>
                <path d="M22.3552838,7.01122993 L6.10254354,7.01122993 L6.10254354,7.01122993 C4.75226035,7.01122993 3.65763954,8.10585074 3.65763954,9.45613393 L3.65763954,9.5075024 L3.65763954,9.5075024 C3.65763954,10.8577856 4.75226035,11.9524064 6.10254354,11.9524064 L22.3552838,11.9524064 L22.3552838,11.9524064 C23.705567,11.9524064 24.8001878,10.8577856 24.8001878,9.5075024 L24.8001878,9.45613393 L24.8001878,9.45613393 C24.8001878,8.10585074 23.705567,7.01122993 22.3552838,7.01122993 Z" id="Rectangle-586-Copy"></path>
            </g>
        </g>
    </g>
</svg>