<?xml version="1.0" encoding="UTF-8" standalone="no"?>
<svg width="206px" height="50px" viewBox="0 0 206 50" version="1.1" xmlns="http://www.w3.org/2000/svg" xmlns:xlink="http://www.w3.org/1999/xlink">
    <!-- Generator: Sketch 46 (44423) - http://www.bohemiancoding.com/sketch -->
    <title>brand</title>
    <desc>Created with Sketch.</desc>
    <defs></defs>
    <g id="Page-1" stroke="none" stroke-width="1" fill="none" fill-rule="evenodd" opacity="0.750548029">
        <g id="brand" transform="translate(0.000000, 1.000000)" fill-rule="nonzero" fill="#31364A">
            <g id="Page-1">
                <g id="brand">
                    <g id="Page-1">
                        <g id="brand">
                            <g id="Page-1">
                                <g id="brand">
                                    <path d="M14.40288,26.24416 L6.91232,26.24416 L6.91232,38.184 C6.91232,39.98624 5.448,41.45056 3.64576,41.45056 C1.84352,41.45056 0.3792,39.98624 0.3792,38.184 L0.3792,6.3632 C0.3792,4.56096 1.84352,3.09664 3.64576,3.09664 L14.40288,3.09664 C20.99232,3.09664 26.23008,6.75744 26.23008,14.64224 C26.23008,22.4144 21.10496,26.24416 14.40288,26.24416 Z M13.896,8.95392 L6.91232,8.95392 L6.91232,20.38688 L13.896,20.38688 C17.38784,20.38688 19.47168,18.30304 19.47168,14.64224 C19.47168,10.92512 17.33152,8.95392 13.896,8.95392 Z M95.10944,32.72096 C92.91296,34.97376 89.98432,35.9312 85.81664,35.9312 C78.32608,35.9312 74.94688,31.93248 74.94688,22.07648 C74.94688,12.78368 78.32608,8.16544 85.81664,8.16544 C89.928,8.16544 92.34976,9.57344 94.65888,12.10784 C95.39104,12.89632 96.17952,13.23424 96.968,13.23424 C98.6576,13.23424 100.00928,11.88256 100.00928,10.24928 C100.00928,9.62976 99.84032,9.06656 99.38976,8.39072 C97.08064,5.01152 92.63136,2.30816 85.81664,2.30816 C74.60896,2.30816 68.18848,8.72864 68.18848,22.07648 C68.18848,35.87488 74.60896,41.78848 85.81664,41.78848 C91.84288,41.78848 97.8128,39.25408 100.51616,35.6496 C101.192,34.8048 101.4736,33.96 101.4736,32.66464 L101.4736,23.65344 C101.4736,22.02016 99.95296,20.66848 98.376,20.66848 L87.44992,20.66848 C85.87296,20.66848 84.5776,21.96384 84.5776,23.5408 C84.5776,25.11776 85.87296,26.41312 87.44992,26.41312 L95.10944,26.41312 L95.10944,32.72096 Z M114.20192,8.95392 L128.5072,8.95392 C130.14048,8.95392 131.43584,7.65856 131.43584,6.02528 C131.43584,4.392 130.14048,3.09664 128.5072,3.09664 L110.93536,3.09664 C109.13312,3.09664 107.6688,4.56096 107.6688,6.3632 L107.6688,37.73344 C107.6688,39.53568 109.13312,41 110.93536,41 L129.12672,41 C130.76,41 132.05536,39.70464 132.05536,38.07136 C132.05536,36.43808 130.76,35.14272 129.12672,35.14272 L114.20192,35.14272 L114.20192,24.77984 L124.8464,24.77984 C126.42336,24.77984 127.71872,23.48448 127.71872,21.90752 C127.71872,20.33056 126.42336,19.0352 124.8464,19.0352 L114.20192,19.0352 L114.20192,8.95392 Z M153.51328,41.78848 C142.13664,41.78848 135.65984,35.25536 135.65984,22.07648 C135.65984,8.72864 142.13664,2.30816 153.51328,2.30816 C164.88992,2.30816 171.36672,8.72864 171.36672,22.07648 C171.36672,35.25536 164.88992,41.78848 153.51328,41.78848 Z M153.51328,8.16544 C146.07904,8.16544 142.41824,12.72736 142.41824,22.07648 C142.41824,31.36928 146.07904,35.9312 153.51328,35.9312 C160.94752,35.9312 164.60832,31.36928 164.60832,22.07648 C164.60832,12.72736 160.94752,8.16544 153.51328,8.16544 Z M202.06112,2.64608 C200.3152,2.64608 198.85088,4.1104 198.85088,5.85632 L198.85088,28.15904 L182.18016,3.99776 C181.61696,3.15296 180.71584,2.64608 179.58944,2.64608 C177.84352,2.64608 176.3792,4.1104 176.3792,5.85632 L176.3792,38.24032 C176.3792,39.98624 177.84352,41.45056 179.58944,41.45056 C181.33536,41.45056 182.79968,39.98624 182.79968,38.24032 L182.79968,16.05024 L199.41408,40.04256 C199.97728,40.88736 200.99104,41.45056 202.06112,41.45056 C203.80704,41.45056 205.27136,39.98624 205.27136,38.24032 L205.27136,5.85632 C205.27136,4.1104 203.80704,2.64608 202.06112,2.64608 Z" id="P-GEON"></path>
                                    <g id="bird" transform="translate(35.874099, 26.391853) scale(-1, 1) rotate(2.000000) translate(-35.874099, -26.391853) translate(9.874099, 0.891853)" stroke="#31364A">
                                        <path d="M18.7946005,20.938131 L16.4648606,5.94966194 C16.1164207,2.60557792 13.3286942,-4.4408921e-15 9.94133813,-4.4408921e-15 C6.8473711,-4.4408921e-15 4.25366054,2.17377066 3.56205583,5.09857208 L0.237435552,7.95998726 L4.16288269,9.81274163 C4.53218273,10.5080196 5.01975284,11.1290356 5.59825107,11.6480402 C4.26323384,16.1638189 2.5484072,22.1974714 1.84569391,25.6676502 C1.49712468,26.5864039 1.30597385,27.5850734 1.30597385,28.6292643 C1.30597385,32.2218522 3.56869551,35.2755856 6.72031826,36.389693 C6.93946856,36.5184801 7.16365762,36.6353674 7.39237449,36.73929 L11.682022,44.721602 L13.7451953,44.721602 L16.1572803,38.6223652 C18.3351151,39.2123763 20.9397951,39.8611321 23.7323456,40.443624 C25.0232537,40.8277425 26.3911766,41.2045944 27.8113753,41.5541176 C36.4565622,43.6817727 50.0177442,44.6455305 50.9175845,44.0059954 C51.9984823,43.237779 50.1926237,41.8252651 47.6711479,40.4203104 C48.6843023,39.851765 49.5133851,39.1305825 50.1104996,38.2317076 C46.4891902,35.7558715 41.8128247,33.2474091 36.9356039,30.9564433 C28.3602626,25.299097 22.780253,22.41175 18.7946005,20.938131 Z" id="Combined-Shape" stroke-width="1.111968" stroke-linecap="round" stroke-linejoin="round"></path>
                                        <g id="Feet" opacity="0.98999995" transform="translate(12.222303, 46.503065) rotate(7.000000) translate(-12.222303, -46.503065) translate(8.722303, 43.003065)" stroke-width="0.5">
                                            <g id="Lower" transform="translate(0.468658, 0.008388)">
                                                <path d="M3.56847367,3.61626509 L3.93856836,0.956308233 C3.97571484,0.689327841 3.79356175,0.44219356 3.53171806,0.404318365 C3.26987437,0.366443171 3.02749494,0.552169629 2.99034847,0.819150021 L2.57920354,3.77414449 L1.59542591,3.93114733 C1.40279579,3.96188952 1.27621631,4.20376976 1.31270275,4.47140197 C1.31572433,4.49356565 1.31976949,4.51521089 1.32475737,4.5362541 L0.830864885,4.61499813 C0.569683814,4.65663968 0.391931984,4.90632596 0.433845062,5.17268806 C0.475758139,5.43905015 0.721464493,5.62122214 0.982645565,5.57958059 L4.85191054,4.96268214 C5.11309161,4.92104059 5.29084344,4.6713543 5.24893036,4.40499221 C5.21635103,4.19794705 5.06063848,4.04177008 4.87023728,4.00203603 C4.87051053,3.97019415 4.86849042,3.93761487 4.86399559,3.90464476 C4.82750916,3.63701255 4.64177349,3.44497524 4.44914337,3.47571743 L3.56847367,3.61626509 Z" id="Combined-Shape"></path>
                                            </g>
                                        </g>
                                    </g>
                                </g>
                            </g>
                        </g>
                    </g>
                </g>
            </g>
        </g>
    </g>
</svg>