<?xml version="1.0" encoding="UTF-8" standalone="no"?>
<svg width="75px" height="75px" viewBox="0 0 75 75" version="1.1" xmlns="http://www.w3.org/2000/svg" xmlns:xlink="http://www.w3.org/1999/xlink">
    <!-- Generator: Sketch 46.2 (44496) - http://www.bohemiancoding.com/sketch -->
    <title>chat-bubble</title>
    <desc>Created with Sketch.</desc>
    <defs></defs>
    <g id="Page-1" stroke="none" stroke-width="1" fill="none" fill-rule="evenodd">
        <g id="chat-bubble" fill="#C8CCD2">
            <g id="Group-3" transform="translate(6.000000, 13.000000)">
                <path d="M31.5103236,0 C48.9122218,0 63.0109314,10.1827714 62.9999936,22.7499082 C62.9999936,35.3279825 48.9012841,45.4998164 31.4993859,45.4998164 C27.7368133,45.4998164 24.1273687,45.0295058 20.7804291,44.1545094 C15.7600198,46.8123111 9.78802954,48.4748044 3.36759317,48.9888649 C0.60035228,49.207614 -1.55437679,46.1560638 1.46443145,44.001385 C3.93635414,42.2295171 6.04733237,41.1795214 7.18485431,37.2092249 C2.7003928,33.2826782 0.00971588485,28.2405111 0.00971588485,22.7499082 C0.00971588485,10.1827714 14.1193631,0 31.5103236,0 Z M31.5103236,41.9998306 C46.8668699,41.9998306 59.5108638,33.3045531 59.5108638,22.7499082 C59.5108638,12.2718255 46.9871847,3.49998588 31.5103236,3.49998588 C16.1647151,3.49998588 3.50978341,12.1952633 3.50978341,22.7499082 C3.50978341,28.1311365 6.74734587,32.6592432 11.0677417,35.8420429 C10.3458528,40.1514005 8.7598847,42.874827 3.50978341,46.3748129 C10.5099185,45.4998164 15.8803346,43.017014 20.3538584,40.3920245 C23.886739,41.4638952 27.6383739,41.9998306 31.5103236,41.9998306 Z" id="Combined-Shape"></path>
                <g id="Group-4" transform="translate(18.000000, 19.000000)">
                    <path d="M17,3.5 C17,5.4359375 15.4359375,7 13.5,7 C11.5640625,7 10,5.4359375 10,3.5 C10,1.5640625 11.5640625,0 13.5,0 C15.4359375,0 17,1.5640625 17,3.5 Z" id="Combined-Shape"></path>
                    <path d="M28,3.5 C28,5.4359375 26.4359375,7 24.5,7 C22.5640625,7 21,5.4359375 21,3.5 C21,1.5640625 22.5640625,0 24.5,0 C26.4359375,0 28,1.5640625 28,3.5 Z" id="Combined-Shape"></path>
                    <path d="M7,3.5 C7,5.4359375 5.4359375,7 3.5,7 C1.5640625,7 0,5.4359375 0,3.5 C0,1.5640625 1.5640625,0 3.5,0 C5.4359375,0 7,1.5640625 7,3.5 Z" id="Path"></path>
                </g>
            </g>
        </g>
    </g>
</svg>