<?xml version="1.0" encoding="UTF-8"?>
<svg width="26px" height="26px" viewBox="0 0 26 26" version="1.1" xmlns="http://www.w3.org/2000/svg" xmlns:xlink="http://www.w3.org/1999/xlink">
    <!-- Generator: Sketch 44.1 (41455) - http://www.bohemiancoding.com/sketch -->
    <title>Rectangle 560</title>
    <desc>Created with Sketch.</desc>
    <defs></defs>
    <g id="##app" stroke="none" stroke-width="1" fill="none" fill-rule="evenodd">
        <g id="Sort" fill="#BFBFBF">
            <path d="M10.9473684,2.18421053 L10.9473684,10.1315789 C10.9473684,10.9600061 10.2757955,11.6315789 9.44736842,11.6315789 L1.5,11.6315789 L1.5,11.6315789 C0.671572875,11.6315789 -1.77635684e-15,10.9600061 -1.77635684e-15,10.1315789 L0,2.18421053 C0,1.3557834 0.671572875,0.684210526 1.5,0.684210526 L9.44736842,0.684210526 L9.44736842,0.684210526 C10.2757955,0.684210526 10.9473684,1.3557834 10.9473684,2.18421053 L10.9473684,2.18421053 Z M8.21052632,3.42105263 L2.73684211,3.42105263 L2.73684211,8.89473684 L8.21052632,8.89473684 L8.21052632,3.42105263 Z M1.5,14.3684211 L9.44736842,14.3684211 C10.2757955,14.3684211 10.9473684,15.0399939 10.9473684,15.8684211 L10.9473684,23.8157895 L10.9473684,23.8157895 C10.9473684,24.6442166 10.2757955,25.3157895 9.44736842,25.3157895 L1.5,25.3157895 C0.671572875,25.3157895 7.67586877e-16,24.6442166 6.66133815e-16,23.8157895 L0,15.8684211 C-1.01453063e-16,15.0399939 0.671572875,14.3684211 1.5,14.3684211 L1.5,14.3684211 Z M2.73684211,17.1052632 L2.73684211,22.5789474 L8.21052632,22.5789474 L8.21052632,17.1052632 L2.73684211,17.1052632 Z M21.9198346,2.03061732 L21.9198346,20.649347 L23.450146,19.1190357 C23.9868269,18.5823547 24.8513852,18.5767813 25.3895126,19.1149087 C25.9239143,19.6493103 25.9207599,20.518901 25.3853856,21.0542753 L21.5231604,24.9165005 C21.2525191,25.1871418 20.9026377,25.3199567 20.5524214,25.3197344 C20.2017339,25.3221471 19.8521686,25.1890024 19.5837938,24.9206275 C19.5810436,24.9178759 15.7174415,21.0542753 15.7174415,21.0542753 C15.1807606,20.5175943 15.1751871,19.6530361 15.7133145,19.1149087 C16.2477162,18.580507 17.1173069,18.5836614 17.6526811,19.1190357 L19.1829925,20.649347 L19.1829925,2.03061732 C19.1829925,1.27420047 19.7903865,0.661003467 20.5514136,0.661003467 C21.3071716,0.661003467 21.9198346,1.2694457 21.9198346,2.03061732 Z" id="Rectangle-560"></path>
        </g>
    </g>
</svg>