<?xml version="1.0" encoding="UTF-8" standalone="no"?>
<svg width="130px" height="130px" viewBox="0 0 130 130" version="1.1" xmlns="http://www.w3.org/2000/svg" xmlns:xlink="http://www.w3.org/1999/xlink">
    <!-- Generator: Sketch 46.2 (44496) - http://www.bohemiancoding.com/sketch -->
    <title>facebook-muted</title>
    <desc>Created with Sketch.</desc>
    <defs></defs>
    <g id="Page-1" stroke="none" stroke-width="1" fill="none" fill-rule="evenodd">
        <g id="facebook-muted" fill-rule="nonzero" fill="#BCC0C8">
            <path d="M122,14.2852679 L122,115.689286 C122,119.175446 119.175446,121.974554 115.714732,121.974554 L86.6549107,121.974554 L86.6549107,77.8504464 L101.464732,77.8504464 L103.678571,60.6486607 L86.6294643,60.6486607 L86.6294643,49.6558036 C86.6294643,44.6683036 88.0035714,41.2839286 95.1540179,41.2839286 L104.263839,41.2839286 L104.263839,25.8888393 C102.686161,25.6852679 97.2915179,25.2017857 90.9808036,25.2017857 C77.8504464,25.2017857 68.8424107,33.2174107 68.8424107,47.9508929 L68.8424107,60.6486607 L53.9816964,60.6486607 L53.9816964,77.8504464 L68.8424107,77.8504464 L68.8424107,122 L14.2852679,122 C10.8245536,122 8,119.175446 8,115.714732 L8,14.2852679 C8,10.8245536 10.8245536,8 14.2852679,8 L115.689286,8 C119.175446,8 122,10.8245536 122,14.2852679 Z" id="Shape"></path>
        </g>
    </g>
</svg>