<?xml version="1.0" encoding="UTF-8"?>
<svg width="36px" height="32px" viewBox="0 0 36 32" version="1.1" xmlns="http://www.w3.org/2000/svg" xmlns:xlink="http://www.w3.org/1999/xlink">
    <!-- Generator: Sketch 44.1 (41455) - http://www.bohemiancoding.com/sketch -->
    <title>Settings 1</title>
    <desc>Created with Sketch.</desc>
    <defs></defs>
    <g id="##app" stroke="none" stroke-width="1" fill="none" fill-rule="evenodd">
        <g id="home/following" transform="translate(-539.000000, -225.000000)">
            <g id="background" fill="#F9F9F9">
                <rect x="0" y="0" width="640" height="1136"></rect>
            </g>
            <g id="Group" transform="translate(48.000000, 225.000000)">
                <g id="screen-title" transform="translate(0.000000, 2.000000)"></g>
                <g id="Settings-1" transform="translate(491.000000, 0.000000)" fill="#BFBFBF">
                    <path d="M18.9,23.1111111 L18.9,21.7773075 C18.9,19.5684282 20.6834003,17.7777778 22.8908369,17.7777778 L25.7091631,17.7777778 C27.9132415,17.7777778 29.7,19.5646313 29.7,21.7773075 L29.7,23.1111111 L34.2147544,23.1111111 C35.2007183,23.1111111 36,23.9002041 36,24.8888889 C36,25.8707284 35.1976142,26.6666667 34.2147544,26.6666667 L29.7,26.6666667 L29.7,28.0004703 C29.7,30.2093495 27.9165997,32 25.7091631,32 L22.8908369,32 C20.6867585,32 18.9,30.2131465 18.9,28.0004703 L18.9,26.6666667 L1.7852456,26.6666667 C0.799281679,26.6666667 0,25.8775736 0,24.8888889 C0,23.9070493 0.802385844,23.1111111 1.7852456,23.1111111 L18.9,23.1111111 Z M6.3,5.33333333 L6.3,3.99952973 C6.3,1.79065045 8.08340034,0 10.2908369,0 L13.1091631,0 C15.3132415,0 17.1,1.7868535 17.1,3.99952973 L17.1,5.33333333 L34.2147544,5.33333333 C35.2007183,5.33333333 36,6.12242635 36,7.11111111 C36,8.09295067 35.1976142,8.88888889 34.2147544,8.88888889 L17.1,8.88888889 L17.1,10.2226925 C17.1,12.4315718 15.3165997,14.2222222 13.1091631,14.2222222 L10.2908369,14.2222222 C8.08675852,14.2222222 6.3,12.4353687 6.3,10.2226925 L6.3,8.88888889 L1.7852456,8.88888889 C0.799281679,8.88888889 0,8.09979587 0,7.11111111 C0,6.12927156 0.802385844,5.33333333 1.7852456,5.33333333 L6.3,5.33333333 Z M9.9,3.55555556 L9.9,10.6666667 L13.5,10.6666667 L13.5,3.55555556 L9.9,3.55555556 Z M22.5,21.3333333 L22.5,28.4444444 L26.1,28.4444444 L26.1,21.3333333 L22.5,21.3333333 Z" id="Combined-Shape"></path>
                </g>
            </g>
        </g>
    </g>
</svg>