<?xml version="1.0" encoding="UTF-8"?>
<svg width="36px" height="32px" viewBox="0 0 36 32" version="1.1" xmlns="http://www.w3.org/2000/svg" xmlns:xlink="http://www.w3.org/1999/xlink">
    <!-- Generator: Sketch 44.1 (41455) - http://www.bohemiancoding.com/sketch -->
    <title>Combined Shape</title>
    <desc>Created with Sketch.</desc>
    <defs></defs>
    <g id="##app" stroke="none" stroke-width="1" fill="none" fill-rule="evenodd">
        <g id="home/following-settings" transform="translate(-540.000000, -227.000000)">
            <g id="background" fill="#F9F9F9">
                <rect x="0" y="0" width="640" height="1136"></rect>
            </g>
            <g id="Group" transform="translate(48.000000, 227.000000)">
                <g id="screen-title"></g>
                <path d="M510.9,23.1111111 L510.9,21.7773075 C510.9,19.5684282 512.6834,17.7777778 514.890837,17.7777778 L517.709163,17.7777778 C519.913241,17.7777778 521.7,19.5646313 521.7,21.7773075 L521.7,23.1111111 L526.214754,23.1111111 C527.200718,23.1111111 528,23.9002041 528,24.8888889 C528,25.8707284 527.197614,26.6666667 526.214754,26.6666667 L521.7,26.6666667 L521.7,28.0004703 C521.7,30.2093495 519.9166,32 517.709163,32 L514.890837,32 C512.686759,32 510.9,30.2131465 510.9,28.0004703 L510.9,26.6666667 L493.785246,26.6666667 C492.799282,26.6666667 492,25.8775736 492,24.8888889 C492,23.9070493 492.802386,23.1111111 493.785246,23.1111111 L510.9,23.1111111 Z M498.3,5.33333333 L498.3,3.99952973 C498.3,1.79065045 500.0834,0 502.290837,0 L505.109163,0 C507.313241,0 509.1,1.7868535 509.1,3.99952973 L509.1,5.33333333 L526.214754,5.33333333 C527.200718,5.33333333 528,6.12242635 528,7.11111111 C528,8.09295067 527.197614,8.88888889 526.214754,8.88888889 L509.1,8.88888889 L509.1,10.2226925 C509.1,12.4315718 507.3166,14.2222222 505.109163,14.2222222 L502.290837,14.2222222 C500.086759,14.2222222 498.3,12.4353687 498.3,10.2226925 L498.3,8.88888889 L493.785246,8.88888889 C492.799282,8.88888889 492,8.09979587 492,7.11111111 C492,6.12927156 492.802386,5.33333333 493.785246,5.33333333 L498.3,5.33333333 Z M501.9,3.55555556 L501.9,10.6666667 L505.5,10.6666667 L505.5,3.55555556 L501.9,3.55555556 Z M514.5,21.3333333 L514.5,28.4444444 L518.1,28.4444444 L518.1,21.3333333 L514.5,21.3333333 Z" id="Combined-Shape" fill="#54595F"></path>
            </g>
        </g>
    </g>
</svg>