<?xml version="1.0" encoding="UTF-8" standalone="no"?>
<svg width="49px" height="46px" viewBox="0 0 49 46" version="1.1" xmlns="http://www.w3.org/2000/svg" xmlns:xlink="http://www.w3.org/1999/xlink">
    <!-- Generator: Sketch 44.1 (41455) - http://www.bohemiancoding.com/sketch -->
    <title>sub-nav/icons/following</title>
    <desc>Created with Sketch.</desc>
    <defs></defs>
    <g id="Symbols" stroke="none" stroke-width="1" fill="none" fill-rule="evenodd">
        <g id="sub-nav/icons/following" fill-rule="nonzero" fill="#BFBFBF">
            <g id="sub-nav/icons/star" transform="translate(0.506410, 0.000000)">
                <path d="M21.8348541,35.4089062 L13.0839075,39.9995368 L14.7554528,30.2785412 C14.9996471,28.8584113 14.4541977,27.1787242 13.4172718,26.1705497 L6.33735072,19.2875181 L16.1213624,17.8694448 C17.5509007,17.6622506 18.9839105,16.6257689 19.624766,15.3305664 L24.0030139,6.49377071 L28.3753872,15.3305664 C29.0146962,16.6226432 30.4457944,17.6617494 31.8787908,17.8694448 L41.651568,19.2978604 L34.5828815,26.1705497 C33.5484579,27.1762912 32.9999154,28.8549759 33.2447004,30.2785412 L34.9378111,40.0091234 L26.1652991,35.4089062 C24.8866812,34.7384118 23.1165651,34.7367898 21.8348541,35.4089062 Z M23.9508302,39.610331 L34.8615259,45.3317903 C37.7688871,46.8563813 40.5744565,44.8259736 40.0187782,41.5943857 L37.9350208,29.4761405 C37.9552828,29.593976 37.9905774,29.4859656 37.9045848,29.5695737 L46.7315231,20.9873848 C49.0836276,18.7004983 48.0146251,15.4116195 44.761628,14.9401372 L32.5630994,13.172109 C32.6817156,13.189301 32.5896354,13.1224425 32.6427817,13.229854 L27.1874338,2.2043102 C25.7337533,-0.733654375 22.267504,-0.73588555 20.8127194,2.2043102 L15.3573716,13.229854 C15.4104184,13.1226436 15.3182152,13.1893333 15.4370539,13.172109 L3.23852528,14.9401372 C-0.0120032945,15.4112617 -1.08526064,18.6987616 1.26863019,20.9873848 L10.0955684,29.5695737 C10.0097369,29.4861221 10.0448324,29.5941971 10.0651325,29.4761405 L7.98137503,41.5943857 C7.42611846,44.8235213 10.2290582,46.8575391 13.1386273,45.3317903 L24.049323,39.610331 C23.9432294,39.6659654 24.0571228,39.6660697 23.9508302,39.610331 L23.9508302,39.610331 Z" id="Star-7"></path>
            </g>
        </g>
    </g>
</svg>