<?xml version="1.0" encoding="UTF-8" standalone="no"?>
<svg width="212px" height="56px" viewBox="0 0 212 56" version="1.1" xmlns="http://www.w3.org/2000/svg" xmlns:xlink="http://www.w3.org/1999/xlink">
    <!-- Generator: Sketch 43.2 (39069) - http://www.bohemiancoding.com/sketch -->
    <title>top-nav/logo</title>
    <desc>Created with Sketch.</desc>
    <defs></defs>
    <g id="Symbols" stroke="none" stroke-width="1" fill="none" fill-rule="evenodd">
        <g id="top-nav/logo">
            <g id="logo" transform="translate(0.000000, -0.400000)">
                <text id="P-GEON" font-family="Bariol-Bold, Bariol" font-size="56.32" font-weight="bold" fill="#999999">
                    <tspan x="0" y="44">P   GEON</tspan>
                </text>
                <g id="Group-3" transform="translate(39.747108, 29.099656) scale(-1, 1) rotate(2.000000) translate(-39.747108, -29.099656) translate(14.147108, 3.499656)" stroke="#BFBFBF" fill="#BFBFBF">
                    <path d="M18.7946005,20.938131 L16.4648606,5.94966194 C16.1164207,2.60557792 13.3286942,-4.4408921e-15 9.94133813,-4.4408921e-15 C6.8473711,-4.4408921e-15 4.25366054,2.17377066 3.56205583,5.09857208 L0.237435552,7.95998726 L0.197839448,7.96643447 L0.218673133,7.97613559 L0.184511779,8.00553739 L0.35110911,8.0378039 L4.16288269,9.81274163 C4.53218273,10.5080196 5.01975284,11.1290356 5.59825107,11.6480402 C4.26323384,16.1638189 2.5484072,22.1974714 1.84569391,25.6676502 C1.49712468,26.5864039 1.30597385,27.5850734 1.30597385,28.6292643 C1.30597385,32.2218522 3.56869551,35.2755856 6.72031826,36.389693 C6.93946856,36.5184801 7.16365762,36.6353674 7.39237449,36.73929 L11.682022,44.721602 L13.7451953,44.721602 L16.1572803,38.6223652 C18.3351151,39.2123763 20.9397951,39.8611321 23.7323456,40.443624 C25.0232537,40.8277425 26.3911766,41.2045944 27.8113753,41.5541176 C36.4565622,43.6817727 50.0177442,44.6455305 50.9175845,44.0059954 C51.9984823,43.237779 50.1926237,41.8252651 47.6711479,40.4203104 C48.6843023,39.851765 49.5133851,39.1305825 50.1104996,38.2317076 C46.4891902,35.7558715 41.8128247,33.2474091 36.9356039,30.9564433 C28.3602626,25.299097 22.780253,22.41175 18.7946005,20.938131 Z" id="Combined-Shape" stroke-width="1.111968" stroke-linecap="round" stroke-linejoin="round"></path>
                    <g id="Feet" transform="translate(12.291267, 46.637471) rotate(7.000000) translate(-12.291267, -46.637471) translate(8.706437, 43.012471)" fill-rule="nonzero" stroke-width="0.88">
                        <g id="Lower" transform="translate(0.468658, 0.008388)">
                            <path d="M2.99034847,0.819150021 L2.47158663,4.54761235 C2.43444015,4.81459274 2.61659324,5.06172703 2.87843693,5.09960222 C3.14028063,5.13747741 3.38266005,4.95175096 3.41980653,4.68477056 L3.93856836,0.956308233 C3.97571484,0.689327841 3.79356175,0.44219356 3.53171806,0.404318365 C3.26987437,0.366443171 3.02749494,0.552169629 2.99034847,0.819150021 L2.99034847,0.819150021 Z" id="Path-405"></path>
                            <path d="M4.77260236,4.1967229 L0.860050177,4.40579359 C0.595947156,4.41990617 0.393069746,4.64964452 0.406910799,4.91892856 C0.420751852,5.1882126 0.646070043,5.39506995 0.910173064,5.38095737 L4.82272525,5.17188668 C5.08682827,5.1577741 5.28970568,4.92803575 5.27586462,4.6587517 C5.26202357,4.38946766 5.03670538,4.18261032 4.77260236,4.1967229 L4.77260236,4.1967229 Z" id="Path-405-Copy" transform="translate(2.841388, 4.788840) rotate(-6.000000) translate(-2.841388, -4.788840) "></path>
                            <path d="M1.59542591,3.93114733 C1.40279579,3.96188952 1.27621631,4.20376976 1.31270275,4.47140197 C1.34918918,4.73903418 1.53492484,4.93107149 1.72755496,4.9003293 L4.58127243,4.4448994 C4.77390255,4.41415721 4.90048202,4.17227697 4.86399559,3.90464476 C4.82750916,3.63701255 4.64177349,3.44497524 4.44914337,3.47571743 L1.59542591,3.93114733 Z" id="Path-405-Copy-2"></path>
                        </g>
                    </g>
                </g>
            </g>
        </g>
    </g>
</svg>