<?xml version="1.0" encoding="UTF-8" standalone="no"?>
<svg width="75px" height="75px" viewBox="0 0 75 75" version="1.1" xmlns="http://www.w3.org/2000/svg" xmlns:xlink="http://www.w3.org/1999/xlink">
    <!-- Generator: Sketch 46.2 (44496) - http://www.bohemiancoding.com/sketch -->
    <title>meh</title>
    <desc>Created with Sketch.</desc>
    <defs></defs>
    <g id="Page-1" stroke="none" stroke-width="1" fill="none" fill-rule="evenodd" fill-opacity="0.1">
        <g id="meh" fill-rule="nonzero" fill="#1F314A">
            <g transform="translate(13.000000, 13.000000)" id="Shape">
                <path d="M24.5,3.16129032 C36.2228548,3.16129032 45.8387097,12.6505948 45.8387097,24.5 C45.8387097,36.2228548 36.3494052,45.8387097 24.5,45.8387097 C12.7771452,45.8387097 3.16129032,36.3494052 3.16129032,24.5 C3.16129032,12.7771452 12.6505948,3.16129032 24.5,3.16129032 L24.5,3.16129032 Z M24.5,0 C10.9689859,0 0,10.9689859 0,24.5 C0,38.0310141 10.9689859,49 24.5,49 C38.0310141,49 49,38.0310141 49,24.5 C49,10.9689859 38.0310141,0 24.5,0 Z M32.4032258,30.8225806 L16.5967742,30.8225806 C14.504494,30.8225806 14.5054819,33.983871 16.5967742,33.983871 L32.4032258,33.983871 C34.495506,33.983871 34.4945181,30.8225806 32.4032258,30.8225806 Z M30.8225806,13.4354839 C30.0436368,13.4343821 29.2765226,13.6260334 28.589623,13.9933528 L28.5911048,13.9933528 C29.6695,13.9933528 30.5436956,14.8675484 30.5436956,15.9459435 C30.5436956,17.0243387 29.6695,17.8985343 28.5911048,17.8985343 C27.5127097,17.8985343 26.6385141,17.0243387 26.6385141,15.9459435 L26.6385141,15.9444617 C26.2711946,16.6313613 26.0795434,17.3984756 26.0806452,18.1774194 C26.0806452,20.7963508 28.2036492,22.9193548 30.8225806,22.9193548 C33.4415121,22.9193548 35.5645161,20.7963508 35.5645161,18.1774194 C35.5645161,15.5584879 33.4415121,13.4354839 30.8225806,13.4354839 L30.8225806,13.4354839 Z M18.1774194,13.4354839 C17.3984756,13.4343821 16.6313613,13.6260334 15.9444617,13.9933528 L15.9459435,13.9933528 C17.0243387,13.9933528 17.8985343,14.8675484 17.8985343,15.9459435 C17.8985343,17.0243387 17.0243387,17.8985343 15.9459435,17.8985343 C14.8675484,17.8985343 13.9933528,17.0243387 13.9933528,15.9459435 L13.9933528,15.9444617 C13.6260334,16.6313613 13.4343821,17.3984756 13.4354839,18.1774194 C13.4354839,20.7963508 15.5584879,22.9193548 18.1774194,22.9193548 C20.7963508,22.9193548 22.9193548,20.7963508 22.9193548,18.1774194 C22.9193548,15.5584879 20.7963508,13.4354839 18.1774194,13.4354839 L18.1774194,13.4354839 Z"></path>
            </g>
        </g>
    </g>
</svg>