<?xml version="1.0" encoding="UTF-8" standalone="no"?>
<svg width="75px" height="75px" viewBox="0 0 75 75" version="1.1" xmlns="http://www.w3.org/2000/svg" xmlns:xlink="http://www.w3.org/1999/xlink">
    <!-- Generator: Sketch 46.2 (44496) - http://www.bohemiancoding.com/sketch -->
    <title>not-found</title>
    <desc>Created with Sketch.</desc>
    <defs></defs>
    <g id="Page-1" stroke="none" stroke-width="1" fill="none" fill-rule="evenodd">
        <g id="not-found" stroke="#C8CCD2" stroke-width="0.5" fill="#C8CCD2" fill-rule="nonzero">
            <g id="user-times" transform="translate(6.000000, 14.000000)">
                <path d="M62.6323412,39.5415 L62.0405513,40.1476071 C61.5503395,40.6496786 60.7554977,40.6496786 60.2651814,40.1476071 L55.2351237,34.99575 L50.205066,40.1475 C49.7148543,40.6495714 48.9200125,40.6495714 48.4296962,40.1475 L47.8379062,39.5413929 C47.3476945,39.0393214 47.3476945,38.22525 47.8379062,37.7230714 L52.8680685,32.5714286 L47.8380108,27.4196786 C47.3477991,26.9176071 47.3477991,26.1035357 47.8380108,25.6013571 L48.4298008,24.99525 C48.9200125,24.4931786 49.7148543,24.4931786 50.2051707,24.99525 L55.2351237,30.1471071 L60.2651814,24.9953571 C60.7553931,24.4932857 61.5502349,24.4932857 62.0405513,24.9953571 L62.6323412,25.6014643 C63.1225529,26.1035357 63.1225529,26.9176071 62.6323412,27.4197857 L57.6021789,32.5714286 L62.6322366,37.7231786 C63.1225529,38.2253571 63.1225529,39.0394286 62.6323412,39.5415 L62.6323412,39.5415 Z M43.5096903,42.2079643 C43.4062291,43.53075 42.3261104,44.5714286 41.0078949,44.5714286 L5.8582707,44.5714286 C4.47163895,44.5714286 3.34758326,43.4201786 3.34758326,42 L3.34758326,40.2857143 C3.34758326,36.0251786 6.71975033,32.5714286 10.8796456,32.5714286 L16.1307484,32.5714286 C20.735663,34.8574286 26.123389,34.8609643 30.7354172,32.5714286 L35.98652,32.5714286 C38.9238151,32.5714286 41.4665138,34.2945 42.7084672,36.8065714 C43.2023403,35.0888571 44.1743948,34.20225 44.7179586,33.6455357 C42.7331556,30.9148929 39.5581821,29.1428571 35.98652,29.1428571 L35.3847919,29.1428571 C38.4424954,25.9497857 40.1709991,21.6771429 40.1709991,17.1428571 C40.1709991,7.67646429 32.6794216,0 23.4330828,0 C14.1903008,0 6.69516651,7.67282143 6.69516651,17.1428571 C6.69516651,21.6708214 8.4192765,25.9451786 11.4813737,29.1428571 L10.8796456,29.1428571 C4.88056716,29.1428571 0,34.1415 0,40.2857143 L0,42 C0,45.3084643 2.62806208,48 5.8582707,48 L41.0078949,48 C43.2476373,48 45.1969769,46.7053929 46.1824217,44.8089643 C45.2545135,44.2592143 44.0483374,43.0315714 43.5096903,42.2079643 Z M10.0427498,17.1428571 C10.0427498,9.56860714 16.0378529,3.42857143 23.4330828,3.42857143 C30.8283127,3.42857143 36.8234158,9.56860714 36.8234158,17.1428571 C36.8234158,24.7171071 30.8283127,30.8571429 23.4330828,30.8571429 C16.0378529,30.8571429 10.0427498,24.7171071 10.0427498,17.1428571 Z" id="Shape"></path>
            </g>
        </g>
    </g>
</svg>