<?xml version="1.0" encoding="UTF-8" standalone="no"?>
<svg width="25px" height="45px" viewBox="0 0 25 45" version="1.1" xmlns="http://www.w3.org/2000/svg" xmlns:xlink="http://www.w3.org/1999/xlink">
    <!-- Generator: Sketch 44.1 (41455) - http://www.bohemiancoding.com/sketch -->
    <title>sub-nav/icons/open_questions-selected</title>
    <desc>Created with Sketch.</desc>
    <defs></defs>
    <g id="Symbols" stroke="none" stroke-width="1" fill="none" fill-rule="evenodd">
        <g id="sub-nav/icons/open_questions-selected" fill="#54595F">
            <g id="sub-nav/icons/?" transform="translate(0.000000, 0.830189)">
                <path d="M9.20562488,30.0094718 C9.80163904,30.6096613 10.5764574,30.9697749 11.5300801,30.9697749 C13.0201155,30.9697749 14.7485565,29.769396 14.7485565,27.728752 C14.7485565,27.0685436 14.5697523,26.4683541 14.2121438,25.9281836 C13.7949339,25.3279942 13.6161296,24.9678806 13.6161296,24.487729 C13.6161296,20.8865924 25,20.1663651 25,10.5033151 C25,3.78119345 20.410691,1.42108547e-14 12.5433042,1.42108547e-14 C4.91432297,1.42108547e-14 0.384615385,4.08128817 0.384615385,10.9234477 C0.384615385,12.724016 1.87465077,14.2244896 3.66269324,14.2244896 C5.4507357,14.2244896 6.94077109,12.724016 6.94077109,10.9234477 C6.94077109,7.5623869 9.20562488,5.88185648 12.5433042,5.88185648 C16.3577947,5.88185648 18.5630471,7.5623869 18.5630471,10.5033151 C18.5630471,16.8653232 7.00037251,17.3454747 7.00037251,24.9078616 C7.00037251,26.588392 7.59638666,28.4489793 9.20562488,30.0094718 Z M11.4136275,43.4382979 C13.9168869,43.4382979 15.2877195,42.1779001 15.2877195,39.5370665 C15.2877195,36.8362141 13.9168869,35.5157973 11.4136275,35.5157973 C8.91036803,35.5157973 7.47993406,36.8362141 7.47993406,39.5370665 C7.47993406,42.1779001 8.91036803,43.4382979 11.4136275,43.4382979 Z" id="?"></path>
            </g>
        </g>
    </g>
</svg>