<?xml version="1.0" encoding="UTF-8" standalone="no"?>
<svg width="52px" height="50px" viewBox="0 0 52 50" version="1.1" xmlns="http://www.w3.org/2000/svg" xmlns:xlink="http://www.w3.org/1999/xlink">
    <!-- Generator: Sketch 46.2 (44496) - http://www.bohemiancoding.com/sketch -->
    <title>pgeon-logo-mobile</title>
    <desc>Created with Sketch.</desc>
    <defs></defs>
    <g id="Page-1" stroke="none" stroke-width="1" fill="none" fill-rule="evenodd" opacity="0.738572761">
        <g id="pgeon-logo-mobile" fill-rule="nonzero" fill="#484F66">
            <path d="M38.9802728,47.1159758 L38.4239013,47.1339285 C38.0806699,47.1450037 37.8501854,47.4703637 37.8490286,47.8423821 C37.6660687,47.9834718 37.5556705,48.2063434 37.5629817,48.4468083 C37.5752401,48.8499834 37.9115367,49.1678732 38.3166828,49.1545669 L42.251362,49.0253357 C42.6569123,49.0120153 42.9738232,48.6724262 42.9615531,48.2693234 C42.9492948,47.8666076 42.6129981,47.5489919 42.2078521,47.5621737 L41.9367686,47.5709937 C41.8587385,47.2643623 41.6235815,47.0306807 41.3259469,47.040285 L40.51132,47.0665719 L40.096857,45.8513235 C40.4121733,45.8408636 40.5985608,45.7219607 40.6901244,45.5386221 L44.6249813,37.6667838 C44.7904574,37.580108 44.9539187,37.4867046 45.1151687,37.3867753 C48.4586019,36.0645823 50.6659392,32.7391416 50.5570207,29.043206 C50.5252177,27.9640331 50.2993602,26.916977 49.9221814,26.0258678 C49.2468637,23.1382207 47.7854277,18.3359817 45.8886929,12.5463408 C46.3422924,12.0724089 46.7292251,11.5367269 47.0372049,10.9550078 L50.5360568,9.21632477 C50.9942148,9.11560178 51.1545522,8.73679659 51.0220523,8.43884863 C50.9730609,8.29849994 50.8683582,8.17626136 50.7150611,8.11357917 L47.569944,5.55707841 C46.6646761,2.48891669 43.8190246,0.353802875 40.5955868,0.42984423 C36.9742184,0.515272823 34.0366038,3.36192516 33.7689522,6.96017454 L31.9376354,21.5607036 C27.6102034,23.3499801 22.0123998,26.6370621 14.519962,31.9305585 C9.39114256,34.5442546 4.95231472,37.1718222 1.60498937,39.631235 C1.36087167,39.8107297 1.3045891,40.1508893 1.47815884,40.3977393 C1.96827272,41.0946818 2.59332969,41.6934081 3.34524341,42.1967673 C2.36177026,42.8311717 1.61189232,43.4085361 1.12267541,43.9271706 C0.274232368,44.8268836 0.106937117,45.7365037 0.991780673,46.3287971 C2.29387143,47.1999761 16.5376841,45.3894686 24.2713403,43.2104921 C25.6161476,42.8322328 26.9627516,42.4166881 28.2599073,41.9821151 C30.6130697,41.4111007 32.9701308,40.7634761 35.260989,40.0724932 L37.6316105,45.5819264 C37.7214977,45.7907263 37.9320176,45.9231372 38.1619634,45.9155093 L38.5664105,45.9020927 L38.9802728,47.1159758 Z" id="logo"></path>
        </g>
    </g>
</svg>