<?xml version="1.0" encoding="UTF-8" standalone="no"?>
<svg width="312px" height="50px" viewBox="0 0 312 50" version="1.1" xmlns="http://www.w3.org/2000/svg" xmlns:xlink="http://www.w3.org/1999/xlink">
    <!-- Generator: Sketch 48.1 (47250) - http://www.bohemiancoding.com/sketch -->
    <title>pgeon-logo-landing</title>
    <desc>Created with Sketch.</desc>
    <defs></defs>
    <g id="Page-1" stroke="none" stroke-width="1" fill="none" fill-rule="evenodd">
        <g id="pgeon-logo-landing" fill-rule="nonzero">
            <path d="M298.744037,47.6033613 C298.486726,47.4752101 296.626203,45.610084 293.161196,42.0054622 C289.697884,38.4037815 284.628817,33.0827731 277.95569,26.0453781 C277.315168,25.4088235 276.907794,25.0911765 276.73696,25.0911765 C276.566126,25.0911765 276.458878,25.1861344 276.416911,25.3768907 C276.372825,25.5672269 276.352053,25.8760504 276.352053,26.2991597 L276.352053,45.3134454 C276.352053,45.9928571 276.105764,46.5848739 275.614457,47.0941176 C275.121878,47.6033613 274.512725,47.8567227 273.786575,47.8567227 L265.2525,47.8567227 C264.440296,47.8567227 263.734493,47.5285714 263.136362,46.8714286 C262.535687,46.2138656 262.236833,45.439916 262.236833,44.55 L262.236833,7.09369747 C262.236833,6.16260506 262.558154,5.33529412 263.199947,4.61428571 C263.841317,3.89327731 264.589511,3.53319328 265.444953,3.53319328 L273.401244,3.53319328 C274.127819,3.53319328 274.693733,3.62857143 275.100683,3.81890756 C275.507209,4.00966387 276.03158,4.44495798 276.67295,5.12310924 C278.640298,7.15756303 281.84757,10.4752101 286.296039,15.0752101 C290.744932,19.6760504 294.231134,23.2462185 296.754222,25.7911765 C297.095891,26.0029412 297.332007,26.1071429 297.46045,26.1071429 C297.717337,26.1071429 297.845356,25.7701681 297.845356,25.0911765 L297.845356,6.13949579 C297.845356,5.46260504 298.10182,4.85840336 298.61517,4.32815126 C299.128096,3.79831933 299.705032,3.53319328 300.347673,3.53319328 L308.495569,3.53319328 C309.435369,3.53319328 310.249692,3.87310924 310.933029,4.54957983 C311.617213,5.22857143 311.959729,6.01344539 311.959729,6.90336135 L311.959729,44.739916 C311.959729,45.5890756 311.628659,46.3529412 310.965669,47.0294117 C310.302257,47.7088235 309.543465,48.0478992 308.688023,48.0478992 L301.437959,48.0478992 C300.625332,48.0478992 300.058145,48.0163866 299.737673,47.9529412 C299.4172,47.8886554 299.085282,47.7726891 298.744037,47.6033613" id="Fill-7" fill="#33CCCC"></path>
            <path d="M240.937736,25.5505632 C240.937736,23.7256143 240.46398,22.0471326 239.518602,20.5176436 C238.570665,18.9894172 237.312293,17.7688563 235.74178,16.855961 C234.17212,15.9430656 232.483914,15.4864075 230.675884,15.4864075 C228.781716,15.4864075 227.050868,15.9430656 225.479928,16.855961 C223.910268,17.7688563 222.67407,18.9894172 221.770481,20.5176436 C220.86604,22.0471326 220.414032,23.7256143 220.414032,25.5505632 C220.414032,27.3771957 220.86604,29.0649368 221.770481,30.6150491 C222.67407,32.1651614 223.910268,33.3970861 225.479928,34.3087188 C227.050868,35.2232978 228.781716,35.6795349 230.675884,35.6795349 C232.483914,35.6795349 234.17212,35.2232978 235.74178,34.3087188 C237.312293,33.3970861 238.570665,32.1651614 239.518602,30.6150491 C240.46398,29.0649368 240.937736,27.3771957 240.937736,25.5505632 Z M207.249097,26.1246477 C207.249097,21.9191842 208.312595,18.0335917 210.443,14.4670287 C212.572553,10.899203 215.444507,8.06497646 219.058862,5.9630864 C222.67407,3.86035465 226.6108,2.80898876 230.869906,2.80898876 C235.129438,2.80898876 239.076402,3.86035465 242.713357,5.9630864 C246.348607,8.06497646 249.231222,10.899203 251.360775,14.4670287 C253.490327,18.0335917 254.555957,21.9191842 254.555957,26.1246477 C254.555957,30.327586 253.490327,34.2140202 251.360775,37.781425 C249.231222,41.3492507 246.348607,44.1834772 242.713357,46.2853672 C239.076402,48.3868363 235.129438,49.4382022 230.869906,49.4382022 C226.6108,49.4382022 222.67407,48.3868363 219.058862,46.2853672 C215.444507,44.1834772 212.572553,41.3492507 210.443,37.781425 C208.312595,34.2140202 207.249097,30.327586 207.249097,26.1246477 Z" id="Fill-6" fill="#33CCCC"></path>
            <path d="M177.453198,14.3884502 L177.453198,19.4881496 L195.733776,19.4881496 C196.42508,19.4881496 197.041428,19.7498112 197.581536,20.2747987 C198.121644,20.7997861 198.392341,21.4616363 198.392341,22.2591013 L198.392341,27.7352774 C198.392341,28.4499592 198.121644,29.0901776 197.581536,29.6555166 C197.041428,30.2233516 196.42508,30.5066452 195.733776,30.5066452 L177.453198,30.5066452 L177.453198,36.1097002 L196.642665,36.1097002 C197.376372,36.1097002 198.012852,36.3717779 198.554245,36.8963493 C199.094353,37.4213367 199.364621,38.1039867 199.364621,38.9426354 L199.364621,44.356828 C199.364621,45.1131094 199.094353,45.7737116 198.554245,46.3402987 C198.012852,46.9077177 197.376372,47.1910112 196.642665,47.1910112 L166.044112,47.1910112 C165.308691,47.1910112 164.671784,46.9077177 164.130819,46.3402987 C163.591568,45.7737116 163.3213,45.1131094 163.3213,44.356828 L163.3213,6.1392423 C163.3213,5.34344126 163.591568,4.68242304 164.130819,4.15743563 C164.671784,3.63244823 165.308691,3.37078652 166.044112,3.37078652 L196.642665,3.37078652 C197.376372,3.37078652 198.012852,3.63244823 198.554245,4.15743563 C199.094353,4.68242304 199.364621,5.34344126 199.364621,6.1392423 L199.364621,11.6179144 C199.364621,12.3317642 199.082788,12.9711506 198.521264,13.5381536 C197.960597,14.1051566 197.332256,14.3884502 196.642665,14.3884502 L177.453198,14.3884502" id="Fill-5" fill="#33CCCC"></path>
            <path d="M104.750903,25.8429084 C104.750903,21.4824158 105.775037,17.4959944 107.82246,13.8844914 C109.870728,10.2721412 112.643333,7.42953888 116.141966,5.3571081 C119.640176,3.28298276 123.439029,2.24719101 127.534298,2.24719101 C128.343626,2.24719101 128.963519,2.26794921 129.389749,2.31073652 C131.863401,2.48188575 133.784816,2.75936779 135.149764,3.14445356 L135.470282,3.2084227 C135.938374,3.25121001 136.301598,3.42193561 136.558266,3.72059949 C136.813243,4.02095792 136.941365,4.40519641 136.941365,4.87500952 C136.941365,5.30245896 136.85595,5.70999747 136.686389,6.09381236 L134.062626,12.0569226 C133.378883,13.8099313 132.354749,14.6855884 130.989377,14.6855884 C127.490745,14.6855884 124.663593,15.4129726 122.510881,16.8656229 C120.355209,18.3191205 118.958547,20.4783968 118.317934,23.342181 C118.103974,24.3254417 117.998263,25.2006752 117.998263,25.9695758 C117.998263,28.2368795 118.627458,30.2660993 119.887118,32.0610481 C121.144241,33.8576913 123.054239,35.0752233 125.613729,35.7166092 C126.979523,35.9724858 128.195207,36.1008478 129.262895,36.1008478 C131.949662,36.1008478 134.093917,35.4492945 135.693545,34.144917 C137.293597,32.8418105 138.327457,31.1858146 138.797661,29.1760821 L135.213614,29.1760821 C134.53114,29.1760821 133.97552,28.9519783 133.550136,28.5037706 C133.123061,28.0538684 132.910369,27.4878898 132.910369,26.8037165 L132.910369,18.4038478 C132.910369,17.7633091 133.134478,17.2079214 133.582695,16.7368374 C134.03049,16.2678715 134.573425,16.0314822 135.213614,16.0314822 L150.125298,16.0314822 C150.85048,16.0314822 151.447539,16.2560097 151.917322,16.704641 C152.387104,17.1536959 152.620939,17.7213691 152.620939,18.4038478 L152.493239,23.0206407 C152.450531,23.5340884 152.397253,24.4419419 152.333826,25.7463193 C152.26913,27.0511203 152.173567,28.2576377 152.045022,29.3675658 C151.661923,33.1307307 150.359978,36.5393117 148.141302,39.5945797 C145.922203,42.6523894 143.106468,45.0565278 139.693674,46.8082656 C136.280033,48.5616979 132.695563,49.4382022 128.941954,49.4382022 C124.760424,49.4382022 120.813575,48.3795341 117.102673,46.2634688 C113.390504,44.1469798 110.403938,41.2726047 108.142132,37.638649 C105.881172,34.0076588 104.750903,30.072921 104.750903,25.8429084" id="Fill-4" fill="#33CCCC"></path>
            <path d="M94.8693675,9.10504202 L94.8693675,9.10168067 L88.9613907,6.0214286 C87.7596174,2.52058824 84.412032,0 80.4722497,0 C77.6507318,0 75.1318826,1.30168067 73.4875519,3.32142857 C72.7842915,4.19537815 72.2370289,5.20336134 71.9029912,6.29411764 C71.7842977,6.66722691 71.6935817,7.04705882 71.6312673,7.44075629 L67.4820762,25.0016807 L45.8806769,36.8932773 L37.0396944,41.7651261 L36.7298191,41.8995798 C36.6564834,41.9306722 36.5971366,41.9756302 36.5555938,42.0344538 C36.5030295,42.1033613 36.4750516,42.1894958 36.4750516,42.2865546 C36.4750516,42.5109244 36.6632659,42.697479 36.8900556,42.697479 L36.8968381,42.697479 L36.9629674,42.6869748 L36.9773802,42.6869748 L48.7721393,41.5579832 L50.4126553,41.402521 L36.1270249,49.2092437 C35.991375,49.2852941 35.9040504,49.4235294 35.9040504,49.5752101 C35.9040504,49.8033613 36.0922646,49.9861344 36.3220216,49.9861344 C36.3499994,49.9861344 36.3775533,49.9861344 36.4021398,49.9827731 L36.4924318,49.9516807 L51.9768683,44.9037815 L55.7949891,43.6567227 C59.6406641,46.8058824 64.5736573,48.705042 69.9555671,48.705042 C80.8656344,48.705042 89.9473957,40.905042 91.8286904,30.6298319 C91.8494615,30.5542017 91.8600594,30.4743698 91.8668417,30.3953781 C92.08261,29.1827731 92.194097,27.9365546 92.194097,26.6588235 C92.194097,25.6613446 92.1279677,24.6802521 91.995709,23.7134454 C91.8880369,22.9197479 91.7341595,22.1428571 91.5497601,21.3831933 C91.5429778,21.3554622 91.5323799,21.3243698 91.5289891,21.3 C91.4213164,20.8512605 91.3060144,20.4130252 91.180538,19.9743698 C90.6235256,18.0995798 89.1462135,15.1508403 88.1741972,13.4970588 L94.8664001,9.79915966 C94.8664001,9.79915966 94.8693675,9.80252101 94.8693675,9.79915966 L94.9499097,9.75420169 C95.0440171,9.68487393 95.10294,9.57436978 95.10294,9.45042017 C95.10294,9.29495798 95.0054417,9.16050421 94.8693675,9.10504202" id="Fill-9" fill="#777888"></path>
            <path d="M11.876844,25.8268993 L15.7050133,25.8268993 C17.7387282,25.8268993 19.5674852,25.459097 21.1895691,24.7226575 C22.8120817,23.9862179 23.623338,22.2891506 23.623338,19.6360478 C23.623338,17.6985104 23.1036538,16.2544377 22.0655716,15.3071694 C21.0270606,14.3599011 19.425987,13.8438924 17.262351,13.7595608 L11.876844,13.7595608 C12.0487857,13.7595608 12.1366861,13.6961035 12.1366861,13.5704412 L12.1366861,26.0803113 C12.1366861,25.9137357 12.0487857,25.8268993 11.876844,25.8268993 Z M0,45.5421039 L0,5.54433563 C0,4.82918771 0.325017066,4.21799299 0.973764852,3.71200392 C1.62251264,3.20726729 2.40203905,2.95510772 3.31062898,2.95510772 L17.3922721,2.95510772 C23.7952798,2.91294197 28.6413786,4.01843624 31.9292821,6.27200803 C35.2167568,8.52557983 36.9910584,11.9485208 37.2509006,16.5391609 C37.2509006,16.7082414 37.2620489,17.0672766 37.2839168,17.6145965 C37.3049271,18.1614988 37.3152179,18.8144418 37.3152179,19.5725904 C37.3152179,20.6254819 37.29335,21.3844655 37.2509006,21.8474539 C37.121837,24.6278889 36.310152,27.2496804 34.8175604,29.7144985 C33.3249688,32.1784816 30.9242161,34.2003505 27.6140159,35.7801052 C24.3046733,37.3598598 19.9885495,38.1497371 14.6673599,38.1497371 L14.6673599,44.8469952 C14.6673599,45.7746418 14.2227125,46.5528296 13.3364193,47.1857334 C12.4496973,47.8165498 11.3571596,48.1325843 10.0596641,48.1325843 L3.57047112,48.1325843 C2.5739808,48.1325843 1.7305658,47.8808422 1.03808221,47.3748531 C0.346456186,46.868864 0,46.2589217 0,45.5421039 Z" id="Fill-1" fill="#33CCCC"></path>
        </g>
    </g>
</svg>