<?xml version="1.0" encoding="UTF-8" standalone="no"?>
<svg width="73px" height="54px" viewBox="0 0 73 54" version="1.1" xmlns="http://www.w3.org/2000/svg" xmlns:xlink="http://www.w3.org/1999/xlink">
    <!-- Generator: Sketch 44.1 (41455) - http://www.bohemiancoding.com/sketch -->
    <title>pgeon-logo-mobile</title>
    <desc>Created with Sketch.</desc>
    <defs></defs>
    <g id="Symbols" stroke="none" stroke-width="1" fill="none" fill-rule="evenodd">
        <g id="pgeon-logo-mobile" stroke="#BFBFBF" fill="#BFBFBF">
            <g id="pgeon-logo" transform="translate(9.000000, 0.000000)">
                <g id="bird" transform="translate(27.343862, 27.013677) scale(-1, 1) rotate(2.000000) translate(-27.343862, -27.013677) translate(1.343862, 1.513677)">
                    <path d="M18.7946005,20.938131 L16.4648606,5.94966194 C16.1164207,2.60557792 13.3286942,-4.4408921e-15 9.94133813,-4.4408921e-15 C6.8473711,-4.4408921e-15 4.25366054,2.17377066 3.56205583,5.09857208 L0.237435552,7.95998726 L0.197839448,7.96643447 L0.218673133,7.97613559 L0.184511779,8.00553739 L0.35110911,8.0378039 L4.16288269,9.81274163 C4.53218273,10.5080196 5.01975284,11.1290356 5.59825107,11.6480402 C4.26323384,16.1638189 2.5484072,22.1974714 1.84569391,25.6676502 C1.49712468,26.5864039 1.30597385,27.5850734 1.30597385,28.6292643 C1.30597385,32.2218522 3.56869551,35.2755856 6.72031826,36.389693 C6.93946856,36.5184801 7.16365762,36.6353674 7.39237449,36.73929 L11.682022,44.721602 L13.7451953,44.721602 L16.1572803,38.6223652 C18.3351151,39.2123763 20.9397951,39.8611321 23.7323456,40.443624 C25.0232537,40.8277425 26.3911766,41.2045944 27.8113753,41.5541176 C36.4565622,43.6817727 50.0177442,44.6455305 50.9175845,44.0059954 C51.9984823,43.237779 50.1926237,41.8252651 47.6711479,40.4203104 C48.6843023,39.851765 49.5133851,39.1305825 50.1104996,38.2317076 C46.4891902,35.7558715 41.8128247,33.2474091 36.9356039,30.9564433 C28.3602626,25.299097 22.780253,22.41175 18.7946005,20.938131 Z" id="Combined-Shape" stroke-width="1.111968" stroke-linecap="round" stroke-linejoin="round"></path>
                    <g id="Feet" transform="translate(12.222303, 46.503065) rotate(7.000000) translate(-12.222303, -46.503065) translate(8.722303, 43.003065)" stroke-width="0.5" fill-rule="nonzero">
                        <g id="Lower" transform="translate(0.468658, 0.008388)">
                            <path d="M3.56847367,3.61626509 L3.93856836,0.956308233 C3.97571484,0.689327841 3.79356175,0.44219356 3.53171806,0.404318365 C3.26987437,0.366443171 3.02749494,0.552169629 2.99034847,0.819150021 L2.57920354,3.77414449 L1.59542591,3.93114733 C1.40279579,3.96188952 1.27621631,4.20376976 1.31270275,4.47140197 C1.31572433,4.49356565 1.31976949,4.51521089 1.32475737,4.5362541 L0.830864885,4.61499813 C0.569683814,4.65663968 0.391931984,4.90632596 0.433845062,5.17268806 C0.475758139,5.43905015 0.721464493,5.62122214 0.982645565,5.57958059 L4.85191054,4.96268214 C5.11309161,4.92104059 5.29084344,4.6713543 5.24893036,4.40499221 C5.21635103,4.19794705 5.06063848,4.04177008 4.87023728,4.00203603 C4.87051053,3.97019415 4.86849042,3.93761487 4.86399559,3.90464476 C4.82750916,3.63701255 4.64177349,3.44497524 4.44914337,3.47571743 L3.56847367,3.61626509 Z" id="Combined-Shape"></path>
                        </g>
                    </g>
                </g>
            </g>
        </g>
    </g>
</svg>