<?xml version="1.0" encoding="UTF-8" standalone="no"?>
<svg width="49px" height="49px" viewBox="0 0 49 49" version="1.1" xmlns="http://www.w3.org/2000/svg" xmlns:xlink="http://www.w3.org/1999/xlink">
    <!-- Generator: Sketch 44.1 (41455) - http://www.bohemiancoding.com/sketch -->
    <title>sub-nav/icons/responses</title>
    <desc>Created with Sketch.</desc>
    <defs></defs>
    <g id="Symbols" stroke="none" stroke-width="1" fill="none" fill-rule="evenodd">
        <g id="sub-nav/icons/responses" fill="#BFBFBF">
            <g id="sub-nav/icons/chat-bubble-check" transform="translate(0.367521, 0.886792)">
                <path d="M6.64369128,18.3828337 C7.77219923,8.04488544 16.5315134,7.10542736e-15 27.1698113,7.10542736e-15 C38.5739704,7.10542736e-15 47.8188679,9.24489754 47.8188679,20.6490566 C47.8188679,23.8249821 47.1018728,26.8334444 45.8209209,29.5214053 L47.7107329,37.922321 C48.2364445,40.259304 46.7630255,41.72496 44.4224243,41.1965569 L36.035748,39.3032205 C33.9977285,40.2735779 31.7756017,40.9197855 29.4360342,41.1751766 C26.4680473,45.2045736 21.6902676,47.8188679 16.3018868,47.8188679 C7.29860332,47.8188679 0,40.5202646 0,31.5169811 C0,26.1286003 2.61429428,21.3508207 6.64369128,18.3828337 Z M31.9048877,36.2539056 C32.679543,36.0192434 33.4351431,35.7266725 34.1669548,35.3782367 L35.5254109,34.7314382 L42.9189979,36.4289842 L41.2497528,29.0085705 L41.8965831,27.651256 C42.9289702,25.4848858 43.4716981,23.1098637 43.4716981,20.6490566 C43.4716981,11.6457731 36.1730948,4.34716981 27.1698113,4.34716981 C19.8134877,4.34716981 13.5952176,9.21975646 11.5663805,15.9135503 C13.0650108,15.4593271 14.654927,15.2150943 16.3018868,15.2150943 C25.3051703,15.2150943 32.6037736,22.5136977 32.6037736,31.5169811 C32.6037736,33.1644605 32.3593867,34.7548602 31.9048877,36.2539056 Z M16.3018868,43.4716981 C22.9042947,43.4716981 28.2566038,38.119389 28.2566038,31.5169811 C28.2566038,24.9145733 22.9042947,19.5622642 16.3018868,19.5622642 C9.69947892,19.5622642 4.34716981,24.9145733 4.34716981,31.5169811 C4.34716981,38.119389 9.69947892,43.4716981 16.3018868,43.4716981 Z M12.5912514,38.4878062 L8.2446123,34.1406364 C7.39582641,33.2917469 7.39591041,31.915509 8.24479993,31.0667231 C9.09368944,30.2179373 10.4699273,30.2180213 11.3187132,31.0669108 L14.153699,33.9022427 L21.2856849,26.7196471 C22.1345226,25.8708094 23.5107604,25.8708094 24.3595981,26.7196471 C25.2084358,27.5684849 25.2084358,28.9447227 24.3595981,29.7935604 L15.6652585,38.4879 C14.8163842,39.3367744 13.440074,39.3367324 12.5912514,38.4878062 Z" id="Combined-Shape"></path>
            </g>
        </g>
    </g>
</svg>