<?xml version="1.0" encoding="UTF-8" standalone="no"?>
<svg width="46px" height="46px" viewBox="0 0 46 46" version="1.1" xmlns="http://www.w3.org/2000/svg" xmlns:xlink="http://www.w3.org/1999/xlink">
    <!-- Generator: Sketch 44.1 (41455) - http://www.bohemiancoding.com/sketch -->
    <title>icons/search</title>
    <desc>Created with Sketch.</desc>
    <defs></defs>
    <g id="Symbols" stroke="none" stroke-width="1" fill="none" fill-rule="evenodd">
        <g id="icons/search" fill="#BFBFBF">
            <path d="M31.7596652,28.4235716 L44.5662495,41.230156 C45.4834122,42.1473186 45.4865321,43.6312131 44.5588726,44.5588726 C43.6376358,45.4801094 42.148817,45.4849105 41.230156,44.5662495 L28.4235716,31.7596652 C25.4470205,34.0337822 21.7274161,35.3846154 17.6923077,35.3846154 C7.92111597,35.3846154 0,27.4634994 0,17.6923077 C0,7.92111597 7.92111597,0 17.6923077,0 C27.4634994,0 35.3846154,7.92111597 35.3846154,17.6923077 C35.3846154,21.7274161 34.0337822,25.4470205 31.7596652,28.4235716 Z M17.6923077,30.6666667 C24.8578483,30.6666667 30.6666667,24.8578483 30.6666667,17.6923077 C30.6666667,10.5267671 24.8578483,4.71794872 17.6923077,4.71794872 C10.5267671,4.71794872 4.71794872,10.5267671 4.71794872,17.6923077 C4.71794872,24.8578483 10.5267671,30.6666667 17.6923077,30.6666667 Z" id="Combined-Shape"></path>
        </g>
    </g>
</svg>