<?xml version="1.0" encoding="UTF-8"?>
<svg width="84px" height="85px" viewBox="0 0 84 85" version="1.1" xmlns="http://www.w3.org/2000/svg" xmlns:xlink="http://www.w3.org/1999/xlink">
    <!-- Generator: Sketch 44.1 (41455) - http://www.bohemiancoding.com/sketch -->
    <title>T Copy</title>
    <desc>Created with Sketch.</desc>
    <defs>
        <ellipse id="path-1" cx="41.8011619" cy="41.8238866" rx="41.8011619" ry="41.8238866"></ellipse>
    </defs>
    <g id="##app" stroke="none" stroke-width="1" fill="none" fill-rule="evenodd">
        <g id="question/add-question_success" transform="translate(-277.000000, -477.000000)">
            <g id="Group-22-Copy" fill="#FFFFFF">
                <rect id="Rectangle-4" x="0" y="0" width="640" height="1136"></rect>
            </g>
            <g id="Group-6" transform="translate(143.000000, 217.000000)">
                <g id="Group-2" transform="translate(0.000000, 60.742964)">
                    <g id="Group-5">
                        <g id="Group" transform="translate(32.036199, 199.812383)">
                            <g id="T-Copy" transform="translate(101.954053, 0.000000)">
                                <g id="Oval-139-Copy">
                                    <use fill="#F9F9F9" fill-rule="evenodd" xlink:href="#path-1"></use>
                                    <ellipse stroke="#F3F3F3" stroke-width="4" cx="41.8011619" cy="41.8238866" rx="39.8011619" ry="39.8238866"></ellipse>
                                </g>
                                <path d="M53.7553249,35.4223901 C53.7671591,35.720945 53.7739215,36.021256 53.7739215,36.3233232 C53.7739215,45.5117866 47.041932,56.1052138 34.7309457,56.1052138 C30.9507527,56.1052138 27.4326035,54.9548997 24.4689728,52.9826817 C24.9930604,53.0459051 25.525601,53.079273 26.0665946,53.079273 C29.2026671,53.079273 32.08853,51.9675953 34.3792999,50.1025059 C31.4494813,50.0463073 28.9778166,48.0354528 28.1274422,45.2729427 C28.5348781,45.3554844 28.9541481,45.3993895 29.3852524,45.3993895 C29.9955609,45.3993895 30.5872727,45.3133354 31.1485535,45.155277 C28.0868677,44.5160185 25.7808824,41.7060908 25.7808824,38.3376901 L25.7808824,38.2498798 C26.6836655,38.7697164 27.7149346,39.0823209 28.8121373,39.1192012 C27.0167147,37.8722958 25.8349817,35.7437756 25.8349817,33.3325065 C25.8349817,32.0575018 26.1646497,30.8632825 26.7411461,29.8359028 C30.0428978,34.0420132 34.9743929,36.8115481 40.5364836,37.1013219 C40.4232131,36.5920225 40.3640419,36.0616487 40.3640419,35.515469 C40.3640419,31.6764054 43.3597941,28.5626543 47.0571475,28.5626543 C48.9827467,28.5626543 50.7223793,29.4073888 51.9429962,30.7596665 C53.467922,30.447062 54.8998645,29.8692706 56.1931774,29.0719537 C55.6944489,30.6946869 54.6327489,32.0575018 53.2498339,32.9180421 C54.6040086,32.7512027 55.8939403,32.3771311 57.0942699,31.8239266 C56.1965586,33.2183532 55.0621626,34.4424279 53.7553249,35.4223901" id="Twitter-Copy" fill="#BFBFBF"></path>
                            </g>
                        </g>
                    </g>
                </g>
            </g>
        </g>
    </g>
</svg>