<?xml version="1.0" encoding="UTF-8"?>
<svg width="84px" height="85px" viewBox="0 0 84 85" version="1.1" xmlns="http://www.w3.org/2000/svg" xmlns:xlink="http://www.w3.org/1999/xlink">
    <!-- Generator: Sketch 44.1 (41455) - http://www.bohemiancoding.com/sketch -->
    <title>F Copy</title>
    <desc>Created with Sketch.</desc>
    <defs>
        <ellipse id="path-1" cx="41.8011619" cy="41.8238866" rx="41.8011619" ry="41.8238866"></ellipse>
    </defs>
    <g id="##app" stroke="none" stroke-width="1" fill="none" fill-rule="evenodd">
        <g id="question/add-question_success" transform="translate(-175.000000, -477.000000)">
            <g id="Group-22-Copy" fill="#FFFFFF">
                <rect id="Rectangle-4" x="0" y="0" width="640" height="1136"></rect>
            </g>
            <g id="Group-6" transform="translate(143.000000, 217.000000)">
                <g id="Group-2" transform="translate(0.000000, 60.742964)">
                    <g id="Group-5">
                        <g id="Group" transform="translate(32.036199, 199.812383)">
                            <g id="F-Copy">
                                <g id="Oval-139-Copy-2">
                                    <use fill="#F9F9F9" fill-rule="evenodd" xlink:href="#path-1"></use>
                                    <ellipse stroke="#F3F3F3" stroke-width="4" cx="41.8011619" cy="41.8238866" rx="39.8011619" ry="39.8238866"></ellipse>
                                </g>
                                <path d="M44.83245,59.1654982 L38.052493,59.1654982 L38.052493,42.8439814 L34.6643782,42.8439814 L34.6643782,37.2178564 L38.052493,37.2178564 L38.052493,33.8414389 C38.052493,29.2547828 39.9664611,26.5224647 45.3989994,26.5224647 L49.9239405,26.5224647 L49.9239405,32.1485897 L47.0967842,32.1485897 C44.9815419,32.1485897 44.8399046,32.9356161 44.8399046,34.4020096 L44.83245,37.2178564 L49.9574862,37.2178564 L49.357391,42.8439814 L44.83245,42.8439814 L44.83245,59.1654982" id="Facebook-Copy" fill="#BFBFBF"></path>
                            </g>
                        </g>
                    </g>
                </g>
            </g>
        </g>
    </g>
</svg>