<?xml version="1.0" encoding="UTF-8"?>
<svg width="85px" height="85px" viewBox="0 0 85 85" version="1.1" xmlns="http://www.w3.org/2000/svg" xmlns:xlink="http://www.w3.org/1999/xlink">
    <!-- Generator: Sketch 44.1 (41455) - http://www.bohemiancoding.com/sketch -->
    <title>Group 8</title>
    <desc>Created with Sketch.</desc>
    <defs>
        <ellipse id="path-1" cx="42.7092687" cy="41.8238866" rx="41.8011619" ry="41.8238866"></ellipse>
    </defs>
    <g id="##app" stroke="none" stroke-width="1" fill="none" fill-rule="evenodd">
        <g id="question/add-question_success" transform="translate(-378.000000, -477.000000)">
            <g id="Group-6" transform="translate(143.000000, 217.000000)">
                <g id="Group-2" transform="translate(0.000000, 60.742964)">
                    <g id="Group-5">
                        <g id="Group" transform="translate(32.036199, 199.812383)">
                            <g id="Group-8" transform="translate(203.000000, 0.000000)">
                                <g id="Oval-139-Copy-4">
                                    <use fill="#F9F9F9" fill-rule="evenodd" xlink:href="#path-1"></use>
                                    <ellipse stroke="#F3F3F3" stroke-width="4" cx="42.7092687" cy="41.8238866" rx="39.8011619" ry="39.8238866"></ellipse>
                                </g>
                                <path d="M33.4909231,39.0550579 L33.4909231,43.2520194 L40.4055319,43.2520194 C40.1268575,45.0514666 38.3154738,48.5331958 33.4909231,48.5331958 C29.328224,48.5331958 25.9318796,45.0724514 25.9318796,40.8037918 C25.9318796,36.536881 29.328224,33.0743878 33.4909231,33.0743878 C35.8596556,33.0743878 37.4446163,34.0886535 38.3503081,34.9630205 L41.6595668,31.7628374 C39.5346744,29.7692807 36.7827646,28.5626543 33.4909231,28.5626543 C26.7504857,28.5626543 21.2989175,34.0361915 21.2989175,40.8037918 C21.2989175,47.5713922 26.7504857,53.0449294 33.4909231,53.0449294 C40.527452,53.0449294 45.1969901,48.078525 45.1969901,41.0835893 C45.1969901,40.2791717 45.1081626,39.6671148 45.0036597,39.0550579 L33.4909231,39.0550579 L33.4909231,39.0550579 Z M33.4909231,39.0550579 L63.1000794,42.5525258 L57.8749342,42.5525258 L57.8749342,47.7987276 L54.391504,47.7987276 L54.391504,42.5525258 L49.1663588,42.5525258 L49.1663588,39.0550579 L54.391504,39.0550579 L54.391504,33.8088561 L57.8749342,33.8088561 L57.8749342,39.0550579 L63.1000794,39.0550579 L63.1000794,42.5525258 L33.4909231,39.0550579 Z" id="Shape" fill="#BFBFBF"></path>
                            </g>
                        </g>
                    </g>
                </g>
            </g>
        </g>
    </g>
</svg>