<?xml version="1.0" encoding="UTF-8"?>
<svg width="29px" height="29px" viewBox="0 0 29 29" version="1.1" xmlns="http://www.w3.org/2000/svg" xmlns:xlink="http://www.w3.org/1999/xlink">
    <!-- Generator: Sketch 44.1 (41455) - http://www.bohemiancoding.com/sketch -->
    <title>Sort</title>
    <desc>Created with Sketch.</desc>
    <defs></defs>
    <g id="##app" stroke="none" stroke-width="1" fill="none" fill-rule="evenodd">
        <g id="Sort" fill="#54595F">
            <path d="M12.2105263,2.24815789 L12.2105263,11.4886842 C12.2105263,12.3088271 11.5456692,12.9736842 10.7255263,12.9736842 L1.485,12.9736842 L1.485,12.9736842 C0.664857147,12.9736842 0,12.3088271 0,11.4886842 L1.77635684e-15,2.24815789 C1.77635684e-15,1.42801504 0.664857147,0.763157895 1.485,0.763157895 L10.7255263,0.763157895 C11.5456692,0.763157895 12.2105263,1.42801504 12.2105263,2.24815789 L12.2105263,2.24815789 Z M9.15789474,3.81578947 L3.05263158,3.81578947 L3.05263158,9.92105263 L9.15789474,9.92105263 L9.15789474,3.81578947 Z M1.485,16.0263158 L10.7255263,16.0263158 C11.5456692,16.0263158 12.2105263,16.6911729 12.2105263,17.5113158 L12.2105263,26.7518421 L12.2105263,26.7518421 C12.2105263,27.571985 11.5456692,28.2368421 10.7255263,28.2368421 L1.485,28.2368421 C0.664857147,28.2368421 1.00438532e-16,27.571985 0,26.7518421 L0,17.5113158 C-1.00438532e-16,16.6911729 0.664857147,16.0263158 1.485,16.0263158 L1.485,16.0263158 Z M3.05263158,19.0789474 L3.05263158,25.1842105 L9.15789474,25.1842105 L9.15789474,19.0789474 L3.05263158,19.0789474 Z M24.4490463,2.26491931 L24.4490463,23.031964 L26.1559321,21.3250782 C26.7545377,20.7264726 27.7188527,20.720256 28.3190717,21.3204751 C28.9151351,21.9165385 28.9116168,22.8864665 28.3144685,23.4836147 L24.0066019,27.7914813 C23.7047329,28.0933504 23.3144805,28.2414902 22.9238547,28.2412422 C22.5327032,28.2439333 22.1428035,28.0954257 21.8434623,27.7960845 C21.8403948,27.7930155 17.5309925,23.4836147 17.5309925,23.4836147 C16.9323868,22.8850091 16.9261702,21.9206941 17.5263893,21.3204751 C18.1224527,20.7244117 19.0923807,20.72793 19.689529,21.3250782 L21.3964147,23.031964 L21.3964147,2.26491931 C21.3964147,1.42122361 22.0738926,0.737273098 22.9227305,0.737273098 C23.7656914,0.737273098 24.4490463,1.4159202 24.4490463,2.26491931 Z" id="Rectangle-560"></path>
        </g>
    </g>
</svg>