<?xml version="1.0" encoding="UTF-8"?>
<svg width="26px" height="26px" viewBox="0 0 26 26" version="1.1" xmlns="http://www.w3.org/2000/svg" xmlns:xlink="http://www.w3.org/1999/xlink">
    <!-- Generator: Sketch 44.1 (41455) - http://www.bohemiancoding.com/sketch -->
    <title>Sort</title>
    <desc>Created with Sketch.</desc>
    <defs></defs>
    <g id="##app" stroke="none" stroke-width="1" fill="none" fill-rule="evenodd">
        <g id="Sort" fill="#54595F">
            <path d="M10.9473684,2.03421053 L10.9473684,10.2815789 C10.9473684,11.0271634 10.3429528,11.6315789 9.59736842,11.6315789 L1.35,11.6315789 L1.35,11.6315789 C0.604415588,11.6315789 -1.77635684e-15,11.0271634 -3.55271368e-15,10.2815789 L-1.77635684e-15,2.03421053 C-1.77635684e-15,1.28862611 0.604415588,0.684210526 1.35,0.684210526 L9.59736842,0.684210526 C10.3429528,0.684210526 10.9473684,1.28862611 10.9473684,2.03421053 L10.9473684,2.03421053 Z M8.21052632,3.42105263 L2.73684211,3.42105263 L2.73684211,8.89473684 L8.21052632,8.89473684 L8.21052632,3.42105263 Z M1.35,14.3684211 L9.59736842,14.3684211 C10.3429528,14.3684211 10.9473684,14.9728366 10.9473684,15.7184211 L10.9473684,23.9657895 L10.9473684,23.9657895 C10.9473684,24.7113739 10.3429528,25.3157895 9.59736842,25.3157895 L1.35,25.3157895 C0.604415588,25.3157895 5.35396966e-16,24.7113739 4.4408921e-16,23.9657895 L0,15.7184211 C-9.13077564e-17,14.9728366 0.604415588,14.3684211 1.35,14.3684211 L1.35,14.3684211 Z M2.73684211,17.1052632 L2.73684211,22.5789474 L8.21052632,22.5789474 L8.21052632,17.1052632 L2.73684211,17.1052632 Z M21.9198346,2.03061732 L21.9198346,20.649347 L23.450146,19.1190357 C23.9868269,18.5823547 24.8513852,18.5767813 25.3895126,19.1149087 C25.9239143,19.6493103 25.9207599,20.518901 25.3853856,21.0542753 L21.5231604,24.9165005 C21.2525191,25.1871418 20.9026377,25.3199567 20.5524214,25.3197344 C20.2017339,25.3221471 19.8521686,25.1890024 19.5837938,24.9206275 C19.5810436,24.9178759 15.7174415,21.0542753 15.7174415,21.0542753 C15.1807606,20.5175943 15.1751871,19.6530361 15.7133145,19.1149087 C16.2477162,18.580507 17.1173069,18.5836614 17.6526811,19.1190357 L19.1829925,20.649347 L19.1829925,2.03061732 C19.1829925,1.27420047 19.7903865,0.661003467 20.5514136,0.661003467 C21.3071716,0.661003467 21.9198346,1.2694457 21.9198346,2.03061732 Z" id="Rectangle-560"></path>
        </g>
    </g>
</svg>