<?xml version="1.0" encoding="UTF-8" standalone="no"?>
<svg width="23px" height="23px" viewBox="0 0 23 23" version="1.1" xmlns="http://www.w3.org/2000/svg" xmlns:xlink="http://www.w3.org/1999/xlink">
    <!-- Generator: Sketch 44.1 (41455) - http://www.bohemiancoding.com/sketch -->
    <title>sort-icon</title>
    <desc>Created with Sketch.</desc>
    <defs></defs>
    <g id="##app" stroke="none" stroke-width="1" fill="none" fill-rule="evenodd">
        <g id="sort-icon" fill="#BFBFBF">
            <g id="Sort">
                <path d="M9.68421053,1.82026316 L9.68421053,9.07447368 C9.68421053,9.74549966 9.1402365,10.2894737 8.46921053,10.2894737 L1.215,10.2894737 C0.543974029,10.2894737 0,9.74549966 0,9.07447368 L1.77635684e-15,1.82026316 C1.77635684e-15,1.14923719 0.543974029,0.605263158 1.215,0.605263158 L8.46921053,0.605263158 C9.1402365,0.605263158 9.68421053,1.14923719 9.68421053,1.82026316 L9.68421053,1.82026316 Z M7.26315789,3.02631579 L2.42105263,3.02631579 L2.42105263,7.86842105 L7.26315789,7.86842105 L7.26315789,3.02631579 Z M1.215,12.7105263 L8.46921053,12.7105263 C9.1402365,12.7105263 9.68421053,13.2545003 9.68421053,13.9255263 L9.68421053,21.1797368 L9.68421053,21.1797368 C9.68421053,21.8507628 9.1402365,22.3947368 8.46921053,22.3947368 L1.215,22.3947368 C0.543974029,22.3947368 3.04221586e-16,21.8507628 2.22044605e-16,21.1797368 L0,13.9255263 L-2.22044605e-16,13.9255263 C-3.04221586e-16,13.2545003 0.543974029,12.7105263 1.215,12.7105263 L1.215,12.7105263 Z M2.42105263,15.1315789 L2.42105263,19.9736842 L7.26315789,19.9736842 L7.26315789,15.1315789 L2.42105263,15.1315789 Z M19.3906229,1.79631532 L19.3906229,18.2667301 L20.7443599,16.9129931 C21.2191161,16.4382369 21.9839177,16.4333065 22.4599534,16.9093423 C22.9326934,17.3820822 22.929903,18.1513355 22.4563026,18.6249358 L19.0397188,22.0415197 C18.8003054,22.2809331 18.4907949,22.3984233 18.1809882,22.3982265 C17.8707646,22.4003609 17.5615338,22.282579 17.3241252,22.0451705 C17.3216924,22.0427364 13.9038906,18.6249358 13.9038906,18.6249358 C13.4291344,18.1501796 13.424204,17.3853781 13.9002398,16.9093423 C14.3729797,16.4366024 15.142233,16.4393928 15.6158333,16.9129931 L16.9695703,18.2667301 L16.9695703,1.79631532 C16.9695703,1.12717734 17.5068803,0.584733836 18.1800966,0.584733836 C18.8486518,0.584733836 19.3906229,1.12297119 19.3906229,1.79631532 Z" id="Rectangle-560"></path>
            </g>
        </g>
    </g>
</svg>