<?xml version="1.0" encoding="UTF-8"?>
<svg width="32px" height="32px" viewBox="0 0 32 32" version="1.1" xmlns="http://www.w3.org/2000/svg" xmlns:xlink="http://www.w3.org/1999/xlink">
    <!-- Generator: Sketch 44.1 (41455) - http://www.bohemiancoding.com/sketch -->
    <title>Sort</title>
    <desc>Created with Sketch.</desc>
    <defs></defs>
    <g id="##app" stroke="none" stroke-width="1" fill="none" fill-rule="evenodd">
        <g id="Sort" fill="#BFBFBF">
            <path d="M13.4736842,2.49210526 L13.4736842,12.6657895 C13.4736842,13.5770593 12.734954,14.3157895 11.8236842,14.3157895 L1.65,14.3157895 C0.738730163,14.3157895 1.77635684e-15,13.5770593 1.77635684e-15,12.6657895 L1.77635684e-15,2.49210526 L3.55271368e-15,2.49210526 C3.55271368e-15,1.58083543 0.738730163,0.842105263 1.65,0.842105263 L11.8236842,0.842105263 L11.8236842,0.842105263 C12.734954,0.842105263 13.4736842,1.58083543 13.4736842,2.49210526 L13.4736842,2.49210526 Z M10.1052632,4.21052632 L3.36842105,4.21052632 L3.36842105,10.9473684 L10.1052632,10.9473684 L10.1052632,4.21052632 Z M1.65,17.6842105 L11.8236842,17.6842105 C12.734954,17.6842105 13.4736842,18.4229407 13.4736842,19.3342105 L13.4736842,29.5078947 C13.4736842,30.4191646 12.734954,31.1578947 11.8236842,31.1578947 L1.65,31.1578947 L1.65,31.1578947 C0.738730163,31.1578947 1.14301318e-15,30.4191646 2.22044605e-16,29.5078947 L0,19.3342105 L-2.22044605e-16,19.3342105 C-3.33642974e-16,18.4229407 0.738730163,17.6842105 1.65,17.6842105 L1.65,17.6842105 Z M3.36842105,21.0526316 L3.36842105,27.7894737 L10.1052632,27.7894737 L10.1052632,21.0526316 L3.36842105,21.0526316 Z M26.978258,2.49922131 L26.978258,25.414581 L28.8617181,23.5311208 C29.5222485,22.8705904 30.5863202,22.8637308 31.2486309,23.5260414 C31.906356,24.1837666 31.9024737,25.254032 31.2435515,25.9129542 L26.4900435,30.6664622 C26.1569466,30.9995591 25.7263233,31.1630237 25.2952879,31.16275 C24.8636725,31.1657195 24.4334383,31.0018491 24.1031308,30.6715415 C24.099746,30.668155 19.3445434,25.9129542 19.3445434,25.9129542 C18.684013,25.2524238 18.6771534,24.1883521 19.339464,23.5260414 C19.9971892,22.8683163 21.0674546,22.8721986 21.7263768,23.5311208 L23.6098369,25.414581 L23.6098369,2.49922131 C23.6098369,1.56824674 24.3573987,0.813542728 25.2940475,0.813542728 C26.2242112,0.813542728 26.978258,1.56239471 26.978258,2.49922131 Z" id="Rectangle-560"></path>
        </g>
    </g>
</svg>