<?xml version="1.0" encoding="UTF-8" standalone="no"?>
<svg width="75px" height="75px" viewBox="0 0 75 75" version="1.1" xmlns="http://www.w3.org/2000/svg" xmlns:xlink="http://www.w3.org/1999/xlink">
    <!-- Generator: Sketch 46.2 (44496) - http://www.bohemiancoding.com/sketch -->
    <title>tumbleweed</title>
    <desc>Created with Sketch.</desc>
    <defs></defs>
    <g id="Page-1" stroke="none" stroke-width="1" fill="none" fill-rule="evenodd">
        <g id="tumbleweed" fill-rule="nonzero" fill="#C8CCD2">
            <path d="M62.1458077,24.2125736 C61.5911205,23.2871034 61.0955146,22.3374533 60.4838399,21.4345334 C59.837336,20.4747091 59.0717069,19.6188925 58.0974127,18.8605807 C57.0698896,18.0579124 55.8420302,17.4294372 54.6223093,16.8435757 C53.3902684,16.2499697 52.1018272,15.7333141 50.8178738,15.2150891 C49.3914121,14.6380899 47.9587242,14.2285962 46.3624495,14.0827122 C43.3226979,13.8021897 40.017041,14.2572938 37.1366586,15.1138065 C34.2926176,15.9647653 31.7641796,17.4078348 29.1591422,18.6700574 C28.8671307,18.8122395 28.6407214,19.023164 28.5665747,19.2749083 C27.3294566,19.5965523 26.1385208,20.0650136 25.0345716,20.6552241 C25.2262346,20.2215743 25.462316,19.79883 25.718204,19.3889011 C26.3209411,18.435722 27.5363027,15.3741133 27.0716337,15.615397 C25.7501982,16.2974801 24.8056514,17.4120593 24.0408796,18.5275697 C23.2667418,19.6621443 22.6815082,20.9888579 22.5618968,22.3003664 C22.1014488,22.6783558 21.6718497,23.0794851 21.2748805,23.5020604 C21.3317888,23.3031591 20.8934807,23.1445385 20.7827697,22.3639372 C20.7385153,22.0519525 20.7792114,21.3692513 20.9049529,20.3161046 C19.5792464,21.9287097 18.8605206,23.1460756 18.7476836,23.9650795 C18.5191385,25.6264446 18.7496187,27.28721 18.8040221,27.3519561 C18.5243795,28.0085792 18.2891175,28.6759993 18.0982231,29.3401162 C18.0245491,29.5880857 17.9696654,29.8381345 17.9197806,30.0907773 C17.7995849,30.3908243 17.5789838,30.6550823 17.3098206,30.8966489 C16.9060097,31.153473 16.5280459,31.4392171 16.1568354,31.7314662 C15.428342,32.19495 14.6496307,32.6012845 13.8864477,33.0223265 C13.5496206,33.2106582 13.2195173,33.4054109 12.8871729,33.5924353 C12.7749479,33.634713 12.6707669,33.69474 12.5763109,33.7621538 C12.1655457,33.9873038 11.7443571,34.197942 11.2864457,34.3698124 C10.2667589,34.7547434 9.18306762,34.9535054 8.10425475,35.1434325 C7.72337266,35.2123708 7.48155548,35.4165512 7.36581294,35.6624853 C7.17733365,35.8126141 7.04210424,36.0155423 7.00942558,36.2195235 C6.93287652,36.7211349 7.33237228,37.0594585 7.8523964,37.1595134 C9.84582591,37.5457236 12.1906446,37.0291031 13.7049272,38.4408892 C14.0307533,38.7456518 14.3013947,39.091908 14.5288255,39.4666691 C14.6398899,39.7058704 14.7035272,39.865841 14.7630279,40.0251302 C14.7979734,40.1359186 14.8145253,40.2089766 14.8312466,40.2852208 C14.8748274,40.5022551 14.9768868,40.6990658 15.1210613,40.8620897 C15.2275333,41.2402159 15.304665,41.6268139 15.3469876,42.0098392 C15.3055791,42.140835 15.2617329,42.2749013 15.2189859,42.4085797 C14.799326,43.7345926 14.592381,44.9921474 14.6960682,46.3489546 C14.7908963,47.5821107 15.0942318,48.7905399 15.3977895,49.9852642 C15.6699386,51.0600606 15.8558816,52.1700361 16.2715278,53.2060538 C16.2903464,53.2531055 16.3121865,53.3011818 16.3323461,53.3455584 C16.3092255,53.4831538 16.3290839,53.6337715 16.4060965,53.7920368 C18.2350279,57.4676466 22.7714503,59.6934028 27.0720301,60.7012651 C29.4954383,61.2650123 32.0694656,61.4321712 34.6210946,61.1437593 C36.0698494,60.9807237 37.4934354,60.6338639 38.8685025,60.1614196 C41.4794879,60.8604456 44.2053175,61.0911482 46.943339,60.5937073 C48.7198744,60.269431 51.2112581,58.7804508 54.4217181,56.1388602 C50.827306,57.7278863 48.2556745,58.6731888 46.7039819,58.9666395 C45.0019286,59.2903391 43.2918711,59.2751621 41.635626,59.0196174 C41.7324579,58.9741039 41.8295622,58.9263906 41.9248958,58.8804005 C41.9919898,58.8469069 42.3210127,58.689543 42.5959171,58.296816 C42.6837645,58.1713878 42.7867273,57.9234146 42.9048244,57.5529507 C42.2424699,58.0207534 41.4144551,58.327972 40.4206996,58.4743761 C38.9302777,58.6945868 36.2665877,59.2249561 34.9555676,59.421883 C32.6754915,59.7691662 30.2555539,59.6417525 28.0974531,59.1740135 C26.7028824,58.8719012 25.2473106,58.4300379 23.8822761,57.8300886 C24.935381,57.7870545 25.995307,57.5035375 26.9904036,57.1058945 C27.0608349,57.1875533 27.1197609,57.2871776 27.2295858,57.3306934 C29.7887142,58.3426593 32.1988849,58.4584239 34.8960791,57.7509946 C35.8951003,57.4916346 37.0744465,57.7136237 38.0056267,57.2918254 C38.1153685,57.308188 38.230935,57.3065074 38.3451858,57.2767458 C39.8598437,56.9039851 41.3590078,56.4444278 42.9059313,56.2015986 C43.793972,56.0637412 48.5201087,55.1358766 52.0668096,53.7232651 C54.6047437,52.7197291 56.1328301,50.1839374 56.1097943,50.0174073 C56.0881791,49.8690345 52.8859673,51.914125 49.3703639,53.1223576 C47.5444569,53.7538491 44.3361397,54.428696 41.7697607,54.6380582 C39.5436129,54.8208004 37.8243757,54.5623027 37.5969877,54.6884915 C37.5073512,54.7385193 37.4852091,54.7488115 37.4507693,54.7657625 C37.331341,54.828928 37.2083424,54.8870745 37.084669,54.9465462 C36.7952511,55.0853396 36.5019894,55.2129274 36.2055915,55.3364613 C35.9491082,55.441042 35.6878246,55.5379158 35.4244886,55.6303033 C35.2935809,55.6767669 35.1606066,55.7187036 35.0272222,55.759744 C34.9910032,55.7700113 34.6765383,55.8624293 34.6534727,55.8763142 C34.1077367,56.0165906 33.5480728,56.120759 32.9889688,56.189743 C32.8563472,56.2072636 32.724253,56.2203355 32.5885785,56.2283597 C32.5631474,56.2314587 32.3962766,56.2383491 32.3400633,56.2412218 C32.0741398,56.2467444 31.8130681,56.2376756 31.5507059,56.2173631 C31.4234237,56.2073466 31.2973413,56.1915492 31.1701657,56.1761569 C31.1388139,56.1718766 30.9609474,56.1434279 30.9261645,56.1372284 C30.6863258,56.0849921 30.4511689,56.0149762 30.2225073,55.9339618 C30.1339605,55.9051519 30.0511342,55.8720637 29.9651354,55.8348179 C30.0737523,55.8796218 29.8018698,55.7570435 29.770308,55.7410777 C30.7506319,55.0369439 31.9704928,54.4660994 32.6230486,53.5342231 C32.7015251,53.4232384 32.7617916,53.3115577 32.8109346,53.1922987 C33.3876915,52.8793214 34.0044815,52.6402156 34.6511713,52.5508063 C34.8766366,52.7874182 35.1964055,52.9477972 35.5756818,52.9556666 C38.5637488,53.0155293 41.132331,51.9358702 43.92067,51.011399 C44.3490484,51.2436691 46.0200218,51.7371474 47.4600242,51.3396717 C49.4860032,50.7827288 51.3028277,49.2595933 50.7000919,49.6455737 C49.6001751,50.3517198 47.7613074,50.425659 46.2727991,50.0561067 C46.3778157,49.9449187 46.4602116,49.8177828 46.5177922,49.6838687 C48.1084504,49.4752037 50.5672218,45.7092914 49.5131156,46.3359013 C48.85079,46.7302581 45.0767447,49.0592419 41.6589509,49.9994928 C38.8273544,50.7842192 36.2515827,50.2200491 35.7397066,50.2086376 C35.2720767,50.2000835 34.8195953,50.3452299 34.505819,50.6096952 C33.578815,50.6920665 32.6860613,50.9897869 31.8561367,51.400274 C31.2628627,51.1946299 30.4259579,51.3067194 30.0651835,51.8217643 C29.0251972,53.308876 27.3886071,54.3118108 25.4957736,54.9716478 C25.3718198,55.0138292 25.2472929,55.0519461 25.1236037,55.0919059 C24.7576654,55.1809442 24.5105735,55.2221948 24.2672774,55.2577481 C24.1476867,55.275834 24.0291236,55.2849442 23.9072869,55.2952882 C23.7205337,55.2978059 23.6096416,55.2900682 23.4946396,55.2817253 C23.4422114,55.2788703 23.2353134,55.2427343 23.1828845,55.2398774 C23.1280429,55.226099 23.0730388,55.2091541 23.0210525,55.1932229 C23.2559972,55.2629091 22.8713201,55.0860683 22.8468472,55.0716101 C22.5923302,54.9026973 22.3634237,54.705774 22.1190241,54.5253497 C21.6192478,54.1543631 21.0588164,53.8747553 20.4821702,53.5987743 C20.3545666,53.5345641 20.229814,53.4681885 20.1050564,53.4017986 C20.0889488,53.3916689 19.7368405,53.1484637 19.944041,53.3231191 C19.7905281,53.1962808 19.6478211,53.0847713 19.4887394,52.9653468 C19.3990765,52.8468163 19.2876005,52.69435 19.2719937,52.679695 C19.2278807,52.6023255 19.1837657,52.5249502 19.1418323,52.4467503 C19.0192089,52.2163214 18.9284888,51.9717291 18.8457328,51.7305945 C18.8755034,51.8101585 18.7890669,51.5271804 18.7853786,51.5134413 C18.7570506,51.3976849 18.7288871,51.2851013 18.7042518,51.1690335 C18.6527055,50.9431343 18.6164464,50.7115085 18.5574952,50.4861765 C18.4067846,49.8845614 18.2503953,49.2816632 18.1035404,48.6772241 C17.9623481,48.096468 17.8402887,47.5128136 17.7424207,46.9233449 C17.6949885,46.6361286 17.6600025,46.34538 17.6278739,46.0524843 C17.6131962,45.9076827 17.6041552,45.7640442 17.5974694,45.6227797 C17.5951278,45.5782547 17.5895254,45.2172244 17.5860707,45.2293012 C17.6167308,44.0089251 18.0745614,42.8380512 18.4585364,41.6931469 C19.4374738,46.6314344 25.1210491,48.5159789 24.9981985,48.4228313 C24.9502022,48.3847161 24.8993402,48.3487241 24.8528539,48.311119 C24.5909063,48.0834678 24.3713085,47.8562313 24.1648128,47.6240834 C23.950821,47.3838587 23.756177,47.1299893 23.5717729,46.8733413 C23.5154282,46.7887566 23.4743431,46.7264928 23.4335138,46.6619821 C23.3303064,46.496802 23.2276033,46.3271072 23.1318773,46.1558979 C22.8022727,45.5770003 22.5278241,44.9732921 22.2858814,44.3595697 C22.1647971,44.0510344 22.0521986,43.7414914 21.9486019,43.4264589 C21.9232305,43.3453487 21.8790078,43.2087102 21.8706438,43.176259 C21.8131121,42.990666 21.7607967,42.8053105 21.7109245,42.6168998 C21.6905082,42.5382585 21.6685756,42.459089 21.6481575,42.3804427 C22.4332911,43.2147463 23.2982319,43.9940389 24.229597,44.7113444 C25.3693496,45.586126 26.5804091,46.4179475 27.8150502,47.1889356 C29.0815913,47.9763033 30.2459668,48.1687637 31.7648524,48.5701503 C32.0731962,48.6506175 35.167605,48.9806249 40.4965205,47.4084545 C42.1452637,46.9260216 44.4800301,46.0568953 47.5024629,44.8057758 C45.1821363,45.3104585 42.9774782,45.419341 40.8875749,45.1298093 C37.7521577,44.6939042 35.7782418,42.4904975 35.4074146,42.2109313 C36.0780278,42.2147686 36.7531516,42.1641038 37.4449337,42.1108041 C37.989042,42.0682573 38.7273553,42.0721176 39.5705007,42.2430519 C40.709651,42.4736705 41.9318527,42.8800569 42.110318,42.6844145 C42.4685575,42.2947125 39.4362847,40.3844734 37.8951394,40.427554 C37.2895425,40.4456421 36.1764854,40.7611402 35.2386951,40.7538915 C34.2072929,40.7459793 33.3695653,40.4155677 33.2367934,40.4777687 C32.7889038,40.1024076 32.3469738,39.7288561 31.8971007,39.3546096 C32.566497,39.2016512 33.5708067,38.7522863 34.6744488,38.5910019 C36.4086819,38.3384837 38.2420284,38.3642326 38.2938396,38.0691158 C38.3653299,37.6521641 32.6062773,37.4004949 30.2723797,38.0503406 C30.0463463,37.8788882 29.814904,37.7039454 29.5746455,37.5320441 C29.1881429,37.2518154 28.7804303,36.9810123 28.3585682,36.7267421 C30.1179862,36.7016279 34.6428023,34.3478166 33.380672,34.5340215 C32.1414296,34.7168413 29.9366613,35.2720333 28.1899486,35.4219158 C26.6702115,35.5529473 25.5120172,35.2766413 25.439966,35.4171775 C24.7900252,35.2249574 24.1170391,35.0942738 23.4205903,35.0382732 C23.5172462,34.9590025 23.5928402,34.8614548 23.6456554,34.7558891 C25.7439146,33.7761063 27.6976624,33.1218499 29.9688655,32.8661784 C30.4988599,32.8061157 31.2160018,32.7565782 31.5744392,32.7595541 C32.2658074,32.7627079 32.8058076,32.8619995 33.3432164,33.008814 C34.5961908,33.3547218 35.5451768,33.873111 36.5851265,34.5377922 C37.0685721,34.845844 37.5303676,35.1791042 37.9805198,35.5203421 C38.2108692,35.6927122 38.4472398,35.858686 38.6743834,36.0351856 C38.7575906,36.1001916 38.8396935,36.1655714 38.9219381,36.2340581 C38.8914493,36.2119486 39.099955,36.3895068 39.1074097,36.3974648 C39.4376029,36.6908223 39.7350185,37.0101818 40.0078894,37.340026 C40.0806213,37.4295831 40.1508768,37.5221003 40.2218143,37.6133126 C40.4330216,37.9253787 40.5521937,38.1335335 40.6647483,38.3439541 C41.1980118,39.3172397 41.6387337,40.2441205 42.5583922,41.0037935 C42.9956323,41.3659801 42.7602061,38.9459378 41.5877355,36.7899892 C40.3042894,34.4281986 38.0267881,32.2737931 37.455673,31.9527866 C36.2406354,31.2699632 34.9338649,30.7325931 33.496875,30.4467098 C32.1734611,30.1805378 30.7902356,30.2536787 29.4366451,30.4032937 C27.4348044,30.6248321 25.5150363,31.1872492 23.6928232,31.9369147 C23.7944088,31.7983834 23.8998857,31.6628103 24.0133952,31.5308907 C24.172415,31.3391507 24.3498635,31.1571151 24.5320566,30.979925 C24.5511289,30.9657687 24.6569641,30.8731336 24.7012379,30.8330529 C24.7989138,30.7561462 24.8989558,30.6816445 24.999843,30.6090068 C25.185857,30.4767636 25.3852123,30.3570583 25.586684,30.2420226 C25.6099096,30.2285954 25.7088978,30.1770578 25.7621164,30.1510686 C25.8327964,30.115805 25.9069397,30.0825527 25.9801416,30.0528419 C26.4448745,29.8465891 26.942401,29.6901003 27.4395113,29.5467613 C27.5581187,29.5131835 27.6790887,29.4820009 27.7974391,29.4506666 C28.1756934,29.3572362 28.4321934,29.3016814 28.6893879,29.2448576 C29.2123648,29.1304938 29.7405497,28.9995786 30.2723478,28.918697 C30.6535625,28.8599231 31.0441936,28.8330785 31.4273098,28.8205496 C31.5490479,28.8191371 31.6549325,28.8221077 31.7615016,28.8237809 C32.0102649,28.8297783 32.2627916,28.8440488 32.5106405,28.8620473 C32.9547045,28.8966312 33.4021726,28.9555028 33.8411068,29.0236272 C34.0655475,29.0602113 34.291386,29.1026652 34.516117,29.1454836 C34.734792,29.1945989 34.8848147,29.2301192 35.035669,29.2674645 C35.8646423,29.4782357 36.6673423,29.7516303 37.4416211,30.0745066 C37.5745179,30.1283663 37.7046636,30.1873794 37.8341182,30.2476709 C37.875014,30.2674803 37.9972826,30.3259866 38.0273965,30.3389181 C38.1246662,30.3901212 38.223036,30.4409386 38.318926,30.4947064 C38.6656919,30.6821675 39.0003224,30.8905384 39.3193428,31.109393 C39.4620523,31.207123 39.6007575,31.3072517 39.7351865,31.4119807 C39.9037457,31.5524244 39.9543137,31.5962348 40.0030902,31.6417086 C40.2617334,31.8818667 40.4958203,32.1408583 40.7049238,32.4093567 C40.7401736,32.4615066 40.8056882,32.5548694 40.828079,32.5872021 C40.9197394,32.7379119 40.999406,32.8958735 41.0724502,33.0560867 C41.1176843,33.1552997 41.1601659,33.2596617 41.1960305,33.366291 C41.1509191,33.2533658 41.2601461,33.6579424 41.2755693,33.742112 C41.3328229,34.0861416 42.0166891,35.3981825 42.9642234,36.1705845 C43.8480116,36.8902003 44.9941803,37.0824035 45.1994105,37.1677666 C45.3824407,37.2417475 45.562021,37.3221383 45.7404911,37.402886 C45.7561895,37.4121224 45.9839456,37.5197804 46.0274571,37.5424317 C46.1597782,37.6087081 46.2926443,37.6789685 46.4220629,37.747263 C46.930735,38.0202483 47.4205893,38.3162236 47.8946528,38.627846 C48.1211251,38.7772776 48.3406911,38.9311277 48.5572023,39.0922408 C48.6811317,39.1819632 48.8025742,39.2746158 48.9226311,39.3698162 C48.9827283,39.4147727 49.041857,39.4631933 49.1016734,39.5103252 C49.52416,39.8680141 49.9123952,40.2540006 50.2665257,40.6630238 C50.3978269,40.8134644 50.5196059,40.9765656 50.6378039,41.134617 C50.6252946,41.1295862 50.7658217,41.339261 50.7898316,41.3778193 C50.8552656,41.48744 50.9138118,41.6015321 50.9720754,41.7177946 C51.0129224,41.8015464 51.0515659,41.8860599 51.088417,41.9722347 C51.1056817,42.0099917 51.1613689,42.1792241 51.1790428,42.2178746 C51.2254796,42.4059487 51.2571941,42.5981093 51.2758466,42.7896157 C51.2760285,43.0105091 51.2651791,43.0872646 51.2546089,43.1618399 C51.2395698,43.2796751 51.2117545,43.3946949 51.1806412,43.5108786 C50.8545962,44.2717434 51.108384,44.9718026 51.881197,45.2239119 C52.5664547,45.4492172 53.5189867,45.17046 53.8125622,44.553835 C55.1959491,45.1524627 59.3998974,43.4613319 58.1336856,43.5978249 C56.7535048,43.7475663 55.4065185,43.4847495 54.2865919,42.8533221 C54.2012498,41.04631 53.0940005,39.4096293 51.6468928,38.1143046 C51.0975306,37.6241714 50.4999058,37.1511377 49.8652777,36.7142544 C50.4589652,36.4614215 51.066103,36.2241398 51.6989499,36.0710828 C53.2060857,38.2542785 60.8026475,39.5484812 59.6697605,39.1224463 C58.4149326,38.6472253 57.211661,38.100454 56.0874243,37.4445726 C55.3799357,37.0329726 54.6440874,36.5536734 54.0631347,35.9917929 C54.3037721,36.0271237 54.5461774,36.0691056 54.7864989,36.1148942 C55.6891936,36.2898217 56.5851905,36.5030181 57.5306256,36.4869547 C58.030585,36.4788306 59.0225944,36.3593871 59.8211811,35.7108625 C60.0654203,35.5127965 60.4442733,34.9518181 60.9579755,34.0286012 C60.1665857,34.523806 59.604196,34.8208466 59.2706077,34.9191548 C58.1333431,35.2549185 57.3764305,35.0772713 57.1678442,35.1104755 C58.1536837,34.4836321 59.7707679,33.3655424 60.1982535,32.3692925 C60.7749068,31.0224546 58.4630197,27.3906492 58.6119885,28.4322581 C58.7756943,29.5872753 58.9920241,31.0272273 58.5238598,32.0813685 C58.1317799,32.9656406 57.1951666,33.5194119 55.966089,33.9985483 C55.6425499,34.1275646 55.4626051,34.3335652 55.4010589,34.5586651 C55.0392403,34.4841502 54.679616,34.408847 54.3135864,34.350203 C52.279696,34.0268289 50.3654358,34.6740771 48.5560512,35.4566389 C48.4078539,35.5231224 48.293136,35.6042683 48.2054223,35.6970694 C47.3150094,35.2163648 46.3700191,34.8059103 45.3942092,34.4954373 C45.5689821,34.4480423 45.7364574,34.3455452 45.8732099,34.1813347 C46.0784957,33.9346603 45.9137717,33.3737307 46.3281405,32.6466651 C46.4960037,32.3524161 47.0835676,31.9011952 48.0911438,31.2938934 C47.1013414,31.4806606 46.4272611,31.6529081 46.0688176,31.8103921 C45.1764413,32.2030714 44.6687257,32.7871639 44.3315158,33.192271 C44.2355593,33.2251177 44.203683,33.1720202 44.171531,33.1211126 C43.5495978,30.2147036 40.4456824,28.2713748 37.2401375,27.250055 C38.5481568,27.1417262 39.8476889,26.911364 41.1717312,26.8440288 C41.4492918,26.8294704 41.9343016,26.8618373 42.3427652,26.8968197 C42.7610368,26.9337455 43.1793147,26.987455 43.5923416,27.057593 C43.6337956,27.0646585 43.9651502,27.1317518 43.994167,27.136695 C44.1464381,27.1715818 44.3009192,27.2141077 44.4482119,27.2548413 C44.8031662,27.3568946 45.1441469,27.4813876 45.4799907,27.6169551 C45.6459002,27.6817177 45.804756,27.7561576 45.965678,27.8267413 C45.8662244,27.7847389 46.2793453,27.9862888 46.3225741,28.0084082 C46.6914446,28.1995335 47.0436902,28.4044738 47.4007273,28.6087131 C48.0528386,28.9790905 48.6742476,29.385426 49.2566611,29.8262995 C49.6909557,30.154867 50.1973921,30.6329606 50.6424327,31.1719106 C50.8925121,31.4709781 50.8941462,31.4829275 51.1058198,31.8541752 C51.1872215,32.0016523 51.2625333,32.1553293 51.3317719,32.3068717 C51.3623834,32.3850317 51.39479,32.4615388 51.4262227,32.5414942 C51.4253986,32.5396906 51.5500075,32.9295985 51.4882262,32.7162586 C51.6724262,33.3649213 51.5832746,29.1096554 50.2609929,27.98927 C50.9395353,28.0582413 52.640552,28.4109284 53.9437933,28.0601118 C54.9627603,27.7866225 55.597751,27.3148774 55.8486909,26.6446638 C55.1203627,26.9716027 54.6428819,27.1591905 54.416119,27.207057 C53.6950907,27.3594431 53.4804883,27.1401886 53.3289463,27.150891 C53.4655224,27.0706804 54.8099254,26.2763033 55.4359468,25.3290932 C55.9737582,24.5168687 56.1821237,23.836526 56.0607752,23.2872974 C55.5163953,24.0007618 55.0459945,24.5101719 54.6494261,24.8151083 C54.2914061,25.0882918 53.9080865,25.3368235 53.5038939,25.5592357 C53.324675,25.6577848 53.2078249,25.7087914 53.0011675,25.7863376 C52.9179783,25.8189956 52.8330112,25.8449738 52.7443122,25.871151 C52.067517,25.979456 51.8007462,26.31322 51.7640338,26.6541248 C50.939011,26.5635614 50.1126184,26.4504429 49.2832463,26.3642703 C49.1190542,26.347928 48.9703056,26.3598366 48.8383897,26.3974589 C48.3031037,26.0984875 47.7513914,25.8193032 47.1951512,25.5580622 C45.6066748,24.8046811 43.737578,24.4413889 41.9046883,24.3782293 C39.8698096,24.3080133 37.6744211,24.9179784 35.8017535,24.8181862 C34.994619,24.7749924 34.2416656,25.2009889 34.118974,25.9060287 C34.0820194,26.1189073 34.1235703,26.3390713 34.2168474,26.5384669 C33.4878279,26.4235729 32.7471866,26.3475464 32.0046901,26.3262756 C32.0815199,26.2103809 32.2227199,25.607358 32.9671036,24.5084516 C33.2455424,24.098063 33.8025844,23.3983138 34.6386162,22.4103091 C33.3563044,23.0673265 32.4826611,23.5752334 32.017306,23.9329417 C30.7254748,24.9282497 30.185533,25.756276 29.8345296,26.1418929 C29.7334138,26.2530879 29.6683776,26.3679569 29.6393738,26.4779826 C29.0673079,26.5681477 28.4887003,26.6916237 27.9157609,26.8304163 C27.3150333,26.8978104 26.8303272,26.994895 26.4616404,27.1216631 C25.4551045,27.4683301 24.9295724,27.7060108 24.9155558,27.7262335 C24.4647186,27.9152274 24.0276615,28.1318006 23.6042933,28.381373 C22.3036285,29.1529448 21.4293823,30.2464127 20.699095,31.4130578 C20.7278678,31.1168461 20.762897,30.8259955 20.8180655,30.5345714 C20.9964077,29.5818868 21.2640681,28.8457434 21.6957204,27.931739 C21.9206126,27.4638892 22.1774006,27.0045775 22.4527123,26.555242 C22.5789245,26.3475051 22.714716,26.1440368 22.8467998,25.9408368 C22.9592082,25.7841521 23.0392858,25.6825974 23.1202112,25.5829144 C23.3698381,25.2709042 23.6436983,24.9786246 23.9314898,24.6946126 C24.3236686,24.3065489 24.4148368,24.2379026 24.8310823,23.9169631 C25.2166364,23.6239072 25.6244015,23.3545635 26.041865,23.0982115 C26.2542796,22.9683446 26.470918,22.8477915 26.6902041,22.72747 C26.9766557,22.5727063 26.8678666,22.6277244 27.1667397,22.4891019 C28.0043219,22.0948381 28.8934997,21.7862585 29.8044116,21.5508766 C30.0874626,21.4897456 30.2328815,21.4621445 30.3821916,21.437502 C30.6234266,21.3936944 30.8699686,21.3587666 31.1159849,21.3282923 C31.357587,21.2993215 31.6031194,21.2818033 31.8499138,21.2670645 C31.9112031,21.2645814 31.9762279,21.2619093 32.039461,21.2609003 C31.9827445,21.2650356 32.3018093,21.2579632 32.3202185,21.2592291 C32.9330004,21.2705906 33.5090031,21.0610307 33.8103168,20.6424425 C34.242801,20.5851473 34.6835529,20.5516455 35.1177901,20.554234 C35.4365822,20.5550409 35.793903,20.5705473 36.1327579,20.6154539 C36.3280193,20.9998076 36.7655501,21.2727192 37.2972336,21.3662271 C38.2099503,21.5287494 43.5662864,23.1454719 47.9590953,23.0279103 C51.6460019,22.9316081 53.6608748,20.3657796 53.5053832,20.3391759 C53.0566268,20.2600959 50.1751533,21.6561088 48.3083306,21.6686718 C47.8701295,21.6716828 44.5711241,21.7375928 42.0792947,21.0309796 C39.9050953,20.4124976 38.4192065,19.0237252 37.7213936,18.8980127 C37.6181578,18.8782349 37.5125996,18.8729422 37.4102567,18.8803125 C38.1695289,18.7395145 41.1949818,18.9221262 43.0708235,18.5846854 C44.8458701,18.2669515 46.86278,18.5369373 49.1203759,19.391275 C46.7779962,18.1968127 45.1122077,17.6104567 44.1242617,17.6357864 C42.4396756,17.6793511 39.1864554,17.4573931 38.4726668,17.5561908 C37.2700059,17.7231122 36.306923,17.3729311 35.1330105,17.672945 C35.7395534,17.410752 36.3588653,17.162715 36.9902719,16.9385437 C39.6804008,15.9928583 42.7972175,15.5326413 45.6978258,15.6882284 C47.2633383,15.7744345 48.6233948,16.16657 50.012948,16.7264393 C51.2990024,17.2433323 52.5777428,17.7634776 53.8158327,18.35049 C54.9850129,18.9034268 56.1160074,19.5564699 57.0818512,20.3326561 C57.9148635,21.0045965 58.5307379,21.8643169 59.0563443,22.7130268 C59.5649183,23.5354518 60.0106867,24.3847027 60.5150234,25.2058815 C61.0971139,26.1522541 61.7524089,27.074604 62.1675838,28.0817773 C62.573141,29.0594246 62.7851053,25.2781441 62.1458077,24.2125736 Z M22.1404604,37.5423393 C22.1500828,37.5410503 22.4417359,37.5314113 22.4448676,37.5270699 C22.7064621,37.5271035 22.9670892,37.5446676 23.2265197,37.568022 C23.3696024,37.5824399 23.5110688,37.6017243 23.6529536,37.6219284 C23.7310637,37.6337636 23.8082358,37.6491502 23.8865054,37.6641434 C23.9080097,37.669346 23.9290944,37.6736253 23.9625783,37.6799182 C24.2745115,37.7542115 24.5740539,37.8489611 24.8698257,37.9578626 C26.0801538,40.3504911 31.2760503,45.0665025 30.5153811,44.2288266 C29.9649888,43.6230339 29.1763247,42.4026138 28.6665674,41.3512415 C28.2374813,40.4660587 28.0816156,39.743872 27.6830857,39.1895101 C29.0916732,40.2490893 30.9866873,42.2019337 32.4290869,43.3482081 C34.1067851,44.6795586 35.9224784,46.0522001 38.1249503,46.7347273 C36.5027996,46.9300499 34.9411638,47.0565922 33.3297692,46.8106307 C33.2788965,46.7886716 33.2240545,46.7692114 33.1663393,46.7518534 C30.5644013,46.0664591 28.4037433,44.3832778 26.3035624,42.8456236 C25.3106235,42.1191798 24.4430691,41.3032436 23.5944989,40.3406486 C22.7872355,39.4293134 22.2093922,38.6041407 21.6761698,37.5932894 C21.8314777,37.5700122 21.9865981,37.5575598 22.1404604,37.5423393 Z" id="Shape"></path>
        </g>
    </g>
</svg>