<?xml version="1.0" encoding="UTF-8" standalone="no"?>
<svg width="130px" height="130px" viewBox="0 0 130 130" version="1.1" xmlns="http://www.w3.org/2000/svg" xmlns:xlink="http://www.w3.org/1999/xlink">
    <!-- Generator: Sketch 46.2 (44496) - http://www.bohemiancoding.com/sketch -->
    <title>twitter-dark</title>
    <desc>Created with Sketch.</desc>
    <defs></defs>
    <g id="Page-1" stroke="none" stroke-width="1" fill="none" fill-rule="evenodd">
        <g id="twitter-dark" fill-rule="nonzero" fill="#535353">
            <g id="twitter-muted" transform="translate(3.000000, 17.000000)">
                <path d="M112.025316,25.1710938 C112.10443,26.2757813 112.10443,27.3804688 112.10443,28.4851563 C112.10443,62.178125 86.3924051,101 39.3987342,101 C24.9208861,101 11.471519,96.8179688 0.158227848,89.5585938 C2.21518987,89.7953125 4.19303797,89.8742188 6.32911392,89.8742188 C18.2753165,89.8742188 29.2721519,85.85 38.0537975,78.9851563 C26.8196203,78.7484375 17.4050633,71.4101563 14.1613924,61.3101563 C15.7436709,61.546875 17.3259494,61.7046875 18.9873418,61.7046875 C21.2816456,61.7046875 23.5759494,61.3890625 25.7120253,60.8367188 C14.0031646,58.4695313 5.22151899,48.2117188 5.22151899,35.8234375 L5.22151899,35.5078125 C8.62341772,37.4015625 12.5791139,38.5851563 16.7721519,38.7429688 C9.88924051,34.1664063 5.37974684,26.3546875 5.37974684,17.5171875 C5.37974684,12.7828125 6.64556962,8.44296875 8.86075949,4.65546875 C21.4398734,20.1210938 40.3481013,30.2210938 61.5506329,31.3257813 C61.1550633,29.4320313 60.9177215,27.459375 60.9177215,25.4867188 C60.9177215,11.4414063 72.3101266,2.84217094e-14 86.471519,2.84217094e-14 C93.8291139,2.84217094e-14 100.474684,3.07734375 105.142405,8.0484375 C110.917722,6.94375 116.455696,4.81328125 121.360759,1.89375 C119.462025,7.81171875 115.427215,12.7828125 110.126582,15.9390625 C115.268987,15.3867188 120.253165,13.9664063 124.841772,11.99375 C121.360759,17.04375 117.009494,21.5414063 112.025316,25.1710938 Z" id="Shape"></path>
            </g>
        </g>
    </g>
</svg>