<?xml version="1.0" encoding="UTF-8" standalone="no"?>
<svg width="474px" height="384px" viewBox="0 0 474 384" version="1.1" xmlns="http://www.w3.org/2000/svg" xmlns:xlink="http://www.w3.org/1999/xlink">
    <!-- Generator: Sketch 46.2 (44496) - http://www.bohemiancoding.com/sketch -->
    <title>twitter-white</title>
    <desc>Created with Sketch.</desc>
    <defs></defs>
    <g id="Page-1" stroke="none" stroke-width="1" fill="none" fill-rule="evenodd">
        <g id="twitter-white" fill-rule="nonzero" fill="#FFFFFF">
            <path d="M424.8,95.7 C425.1,99.9 425.1,104.1 425.1,108.3 C425.1,236.4 327.6,384 149.4,384 C94.5,384 43.5,368.1 0.6,340.5 C8.4,341.4 15.9,341.7 24,341.7 C69.3,341.7 111,326.4 144.3,300.3 C101.7,299.4 66,271.5 53.7,233.1 C59.7,234 65.7,234.6 72,234.6 C80.7,234.6 89.4,233.4 97.5,231.3 C53.1,222.3 19.8,183.3 19.8,136.2 L19.8,135 C32.7,142.2 47.7,146.7 63.6,147.3 C37.5,129.9 20.4,100.2 20.4,66.6 C20.4,48.6 25.2,32.1 33.6,17.7 C81.3,76.5 153,114.9 233.4,119.1 C231.9,111.9 231,104.4 231,96.9 C231,43.5 274.2,2.84217094e-14 327.9,2.84217094e-14 C355.8,2.84217094e-14 381,11.7 398.7,30.6 C420.6,26.4 441.6,18.3 460.2,7.2 C453,29.7 437.7,48.6 417.6,60.6 C437.1,58.5 456,53.1 473.4,45.6 C460.2,64.8 443.7,81.9 424.8,95.7 Z" id="Shape"></path>
        </g>
    </g>
</svg>